<?xml version="1.0" standalone="no"?>
<!DOCTYPE svg PUBLIC "-//W3C//DTD SVG 20010904//EN"
 "http://www.w3.org/TR/2001/REC-SVG-20010904/DTD/svg10.dtd">
<svg version="1.0" xmlns="http://www.w3.org/2000/svg"
 width="1280.000000pt" height="853.000000pt" viewBox="0 0 1280.000000 853.000000"
 preserveAspectRatio="xMidYMid meet">

<g transform="translate(0.000000,853.000000) scale(0.100000,-0.100000)"
fill="white" stroke="none">
<path d="M5848 8193 c6 -2 18 -2 25 0 6 3 1 5 -13 5 -14 0 -19 -2 -12 -5z"/>
<path d="M5798 8183 c7 -3 16 -2 19 1 4 3 -2 6 -13 5 -11 0 -14 -3 -6 -6z"/>
<path d="M6355 8172 c-9 -9 -5 -86 5 -102 8 -12 10 -12 16 4 6 17 8 16 20 -5
12 -22 13 -18 11 41 -2 59 -4 65 -24 66 -12 1 -25 -1 -28 -4z"/>
<path d="M5650 8160 c-9 -6 -10 -10 -3 -10 6 0 15 5 18 10 8 12 4 12 -15 0z"/>
<path d="M6627 8163 c-4 -3 -7 -30 -7 -59 0 -43 3 -52 15 -48 8 4 15 15 15 26
0 11 4 16 11 13 6 -4 8 -13 5 -21 -3 -7 -1 -16 4 -19 6 -4 10 7 10 23 0 16 3
44 6 61 6 29 5 31 -23 31 -16 0 -33 -3 -36 -7z"/>
<path d="M6111 8152 c-20 -3 -22 -8 -17 -34 3 -17 6 -40 6 -51 0 -20 0 -20 14
-1 14 18 15 18 25 -8 16 -44 22 -33 15 30 -7 65 -10 69 -43 64z"/>
<path d="M6775 8150 c4 -6 11 -8 16 -5 14 9 11 15 -7 15 -8 0 -12 -5 -9 -10z"/>
<path d="M5595 8140 c-3 -6 1 -7 9 -4 18 7 21 14 7 14 -6 0 -13 -4 -16 -10z"/>
<path d="M6932 8141 c-5 -3 -12 -37 -16 -76 -5 -52 -4 -65 4 -52 6 9 22 17 35
17 25 0 29 7 39 71 6 35 5 37 -24 41 -16 2 -34 2 -38 -1z"/>
<path d="M6536 8079 c-5 -40 -3 -66 3 -72 8 -8 11 10 11 61 0 40 -2 72 -4 72
-2 0 -7 -28 -10 -61z"/>
<path d="M6322 8075 c-1 -33 -6 -65 -10 -70 -4 -6 -28 -23 -54 -38 -35 -21
-49 -36 -58 -64 -7 -21 -19 -57 -27 -80 l-16 -43 -59 0 -59 0 -20 44 c-10 25
-23 46 -27 48 -12 5 -62 145 -63 176 l-1 27 -8 -25 c-4 -14 -9 -20 -10 -15 -3
14 -6 37 -8 58 -2 13 -11 17 -44 16 -37 0 -40 -2 -20 -10 13 -5 29 -6 35 -3 8
5 7 2 0 -7 -22 -23 -14 -53 22 -79 19 -14 35 -33 35 -43 0 -10 9 -36 21 -58
11 -23 18 -43 15 -46 -3 -3 -24 -9 -48 -14 -180 -37 -168 -30 -188 -111 -13
-50 -25 -58 -92 -58 -27 0 -41 6 -52 22 -23 32 -21 36 24 49 44 13 75 39 46
39 -9 0 -38 -8 -65 -19 l-49 -18 -29 34 c-15 19 -37 60 -49 91 -23 61 -49 85
-39 35 5 -23 3 -21 -11 10 -15 35 -34 50 -34 26 0 -7 -7 -17 -15 -23 -13 -9
-14 -17 -4 -44 9 -26 16 -32 40 -32 16 0 29 5 29 13 1 6 7 -3 15 -21 8 -18 24
-45 35 -59 11 -14 20 -29 20 -33 0 -5 -33 -20 -72 -35 -40 -15 -101 -43 -135
-61 -34 -19 -68 -34 -76 -34 -9 0 -17 -3 -19 -7 -1 -5 -44 -29 -93 -54 l-91
-46 -40 36 c-22 20 -54 59 -70 86 -20 35 -29 45 -32 33 -3 -16 -5 -16 -18 -4
-11 12 -21 13 -44 5 -26 -10 -28 -13 -15 -26 8 -8 15 -20 15 -27 0 -16 37 -36
73 -38 15 -1 27 -7 27 -13 0 -7 11 -22 25 -35 14 -13 25 -29 25 -36 0 -7 -26
-28 -57 -48 -32 -19 -82 -52 -111 -74 -44 -34 -50 -41 -37 -52 19 -16 20 -15
144 64 57 36 112 66 121 66 9 0 25 -9 35 -20 23 -25 45 -24 120 3 l59 22 11
64 10 64 135 53 c74 29 143 54 152 54 10 0 25 -11 34 -25 15 -22 23 -25 80
-25 70 0 76 5 88 71 4 21 12 41 19 47 13 11 183 52 215 52 12 0 28 -13 41 -35
19 -32 24 -35 71 -36 27 -1 56 -2 62 -3 7 -1 21 22 32 51 10 29 26 54 35 57 9
3 71 8 138 12 l123 7 6 -31 c4 -18 11 -36 18 -41 9 -8 122 -41 140 -41 3 0 14
17 25 38 33 65 39 67 149 54 53 -6 125 -17 158 -23 61 -11 62 -11 70 -51 8
-37 13 -41 79 -69 38 -16 74 -29 80 -29 6 0 26 16 45 35 19 19 44 35 55 35 24
0 182 -51 252 -81 95 -41 134 -11 42 33 -31 15 -70 30 -85 34 -16 4 -33 10
-39 14 -5 4 -34 15 -62 25 -29 11 -53 23 -53 27 0 4 31 8 69 8 l70 0 21 58
c12 31 22 67 23 79 3 37 -17 27 -30 -15 -22 -79 -26 -82 -103 -82 -69 0 -70
-1 -112 -42 -24 -24 -55 -53 -68 -65 l-26 -22 -64 25 c-85 34 -90 39 -90 85 0
24 -5 39 -12 40 -7 0 -24 3 -38 6 -14 2 -79 13 -145 22 -105 16 -117 19 -94
29 15 6 43 14 63 17 46 9 51 17 65 96 13 80 14 89 1 89 -5 0 -12 -17 -15 -37
-15 -94 -15 -95 -85 -117 -58 -19 -66 -25 -89 -68 -15 -26 -35 -59 -46 -73
-20 -27 -21 -27 -77 -16 -64 14 -80 28 -82 72 l-1 31 -139 -7 c-150 -8 -162
-2 -80 36 25 11 47 26 50 33 3 7 3 46 1 87 -3 72 -3 73 -5 14z m-1082 -484 c0
-61 -13 -83 -59 -103 -71 -30 -99 -33 -121 -13 -11 10 -20 23 -20 29 0 10 171
103 193 105 4 1 7 -7 7 -18z"/>
<path d="M5415 8094 c-27 -13 -41 -22 -30 -20 68 16 105 28 110 36 11 17 -28
9 -80 -16z"/>
<path d="M6201 8103 c1 -10 5 -31 9 -48 7 -27 8 -25 9 18 0 26 -3 47 -9 47 -5
0 -9 -8 -9 -17z"/>
<path d="M7090 8100 c0 -5 5 -10 10 -10 6 0 10 5 10 10 0 6 -4 10 -10 10 -5 0
-10 -4 -10 -10z"/>
<path d="M6431 8043 c-1 -64 11 -113 29 -113 6 0 6 10 -2 28 -6 15 -14 54 -18
87 l-7 60 -2 -62z"/>
<path d="M7152 8077 c-36 -73 -39 -171 -7 -197 18 -15 18 -14 5 30 -7 26 -6
51 6 100 9 36 21 68 26 71 5 3 3 9 -5 12 -9 3 -19 -3 -25 -16z"/>
<path d="M5145 8080 c-3 -6 1 -7 9 -4 18 7 21 14 7 14 -6 0 -13 -4 -16 -10z"/>
<path d="M7247 8073 c-3 -5 -8 -33 -12 -63 l-7 -56 40 4 c36 4 40 7 44 35 3
18 8 40 13 50 5 12 3 17 -8 17 -8 0 -18 -10 -22 -22 -7 -21 -8 -20 -12 10 -4
29 -25 44 -36 25z"/>
<path d="M5335 8060 c-3 -6 1 -7 9 -4 18 7 21 14 7 14 -6 0 -13 -4 -16 -10z"/>
<path d="M5045 8050 c-8 -13 5 -13 25 0 13 8 13 10 -2 10 -9 0 -20 -4 -23 -10z"/>
<path d="M5246 8035 c-45 -16 -76 -42 -36 -30 31 9 98 44 85 44 -5 0 -27 -6
-49 -14z"/>
<path d="M5637 8030 c-20 -24 -23 -74 -5 -68 7 3 19 -1 26 -9 33 -33 36 0 7
69 -11 27 -11 27 -28 8z"/>
<path d="M5495 8024 c62 -14 126 -8 75 7 -14 4 -50 7 -80 7 l-55 0 60 -14z"/>
<path d="M5726 8000 c3 -25 11 -49 16 -55 7 -7 8 3 3 30 -10 59 -27 81 -19 25z"/>
<path d="M6032 8010 c0 -19 2 -27 5 -17 2 9 2 25 0 35 -3 9 -5 1 -5 -18z"/>
<path d="M7400 8024 c0 -7 58 -30 95 -38 26 -5 27 -5 11 5 -24 15 -106 40
-106 33z"/>
<path d="M4895 7980 l-40 -19 43 0 c36 -1 42 2 42 19 0 11 -1 20 -2 19 -2 0
-21 -9 -43 -19z"/>
<path d="M4963 7983 c9 -2 23 -2 30 0 6 3 -1 5 -18 5 -16 0 -22 -2 -12 -5z"/>
<path d="M4713 7958 c-19 -9 -32 -28 -19 -28 9 0 76 31 76 35 0 8 -34 4 -57
-7z"/>
<path d="M7000 7955 c0 -31 11 -65 21 -65 10 0 2 45 -12 70 -7 12 -8 11 -9 -5z"/>
<path d="M7570 7946 c-5 -13 -12 -40 -15 -59 -7 -33 -6 -35 16 -30 29 8 69 43
69 60 0 18 -10 16 -27 -4 -13 -16 -14 -14 -8 20 5 29 3 37 -10 37 -8 0 -20
-11 -25 -24z"/>
<path d="M4870 7940 c-8 -5 -10 -10 -5 -10 6 0 17 5 25 10 8 5 11 10 5 10 -5
0 -17 -5 -25 -10z"/>
<path d="M5798 7897 c-45 -45 -58 -67 -40 -67 4 0 27 17 51 38 29 25 42 43 40
57 -4 17 -11 13 -51 -28z"/>
<path d="M4998 7926 c-21 -7 -40 -12 -43 -10 -3 2 -3 1 0 -3 3 -3 -1 -13 -8
-21 -10 -13 -8 -14 12 -7 26 8 91 45 91 51 0 6 -13 4 -52 -10z"/>
<path d="M5190 7919 c19 -4 47 -11 62 -15 15 -3 36 -3 45 1 17 7 16 8 -2 15
-11 5 -47 8 -80 8 -54 0 -56 -1 -25 -9z"/>
<path d="M4577 7876 c-66 -38 -85 -54 -42 -35 38 17 105 58 105 64 0 7 2 8
-63 -29z"/>
<path d="M4752 7896 c-17 -7 -38 -18 -45 -25 -10 -11 -8 -11 12 -1 13 7 38 9
60 6 28 -5 32 -4 18 4 -9 6 -15 15 -12 21 4 5 5 8 3 8 -2 -1 -18 -7 -36 -13z"/>
<path d="M6528 7903 c12 -2 32 -2 45 0 12 2 2 4 -23 4 -25 0 -35 -2 -22 -4z"/>
<path d="M6088 7873 c7 -3 16 -2 19 1 4 3 -2 6 -13 5 -11 0 -14 -3 -6 -6z"/>
<path d="M4662 7849 c-13 -5 -29 -6 -35 -2 -7 3 -9 3 -5 -2 4 -4 -14 -23 -40
-41 -61 -44 -50 -43 24 1 97 57 106 65 56 44z"/>
<path d="M7772 7809 c-20 -45 -21 -59 -13 -108 l9 -56 1 48 c1 29 11 67 26 98
23 45 26 69 7 69 -4 0 -17 -23 -30 -51z"/>
<path d="M5194 7825 c12 -46 25 -75 36 -75 15 0 12 25 -7 65 -19 40 -38 47
-29 10z"/>
<path d="M7078 7843 c6 -2 18 -2 25 0 6 3 1 5 -13 5 -14 0 -19 -2 -12 -5z"/>
<path d="M5100 7825 c0 -7 -8 -18 -17 -24 -17 -9 -17 -12 1 -45 16 -30 23 -35
44 -29 15 3 27 1 33 -8 19 -31 8 17 -16 69 -23 50 -45 68 -45 37z"/>
<path d="M7138 7833 c7 -3 16 -2 19 1 4 3 -2 6 -13 5 -11 0 -14 -3 -6 -6z"/>
<path d="M4447 7823 c-27 -2 -45 -8 -42 -14 4 -5 11 -7 16 -4 5 4 9 2 9 -4 0
-5 -3 -11 -7 -14 -5 -2 -1 -2 7 1 8 2 25 7 37 9 12 3 24 11 27 19 3 8 4 13 3
12 -1 -1 -23 -3 -50 -5z"/>
<path d="M7873 7768 c-21 -57 -23 -90 -3 -59 4 8 15 11 23 8 18 -7 57 32 57
57 0 16 -2 17 -17 5 -15 -13 -16 -11 -10 19 5 26 3 32 -11 32 -12 0 -24 -19
-39 -62z"/>
<path d="M4765 7800 c-27 -10 -44 -19 -36 -19 11 -1 11 -4 1 -16 -7 -8 -9 -15
-5 -15 14 0 105 53 105 62 0 10 -4 9 -65 -12z"/>
<path d="M4932 7802 c-10 -6 -2 -11 25 -15 55 -10 79 -9 68 2 -15 14 -78 23
-93 13z"/>
<path d="M4655 7780 c-16 -7 -17 -9 -3 -9 9 -1 20 4 23 9 7 11 7 11 -20 0z"/>
<path d="M4355 7760 c-3 -6 1 -7 9 -4 18 7 21 14 7 14 -6 0 -13 -4 -16 -10z"/>
<path d="M4485 7745 c-32 -20 -48 -23 -80 -18 -22 3 -47 9 -55 13 -9 5 -39 -5
-80 -27 -36 -19 -56 -31 -45 -28 35 11 80 18 74 12 -3 -4 -46 -31 -97 -62 -66
-40 -102 -55 -129 -56 -21 0 -47 -4 -58 -9 -14 -7 -9 -8 18 -4 49 8 47 -7 -5
-34 -24 -12 -72 -40 -108 -63 -91 -57 -129 -75 -175 -83 l-40 -7 35 31 c19 17
54 44 78 61 23 16 42 32 42 35 0 9 -56 -25 -75 -46 -11 -12 -39 -33 -62 -47
-24 -14 -43 -28 -43 -31 0 -4 -19 -19 -43 -34 -23 -15 -60 -45 -82 -67 -21
-23 -44 -41 -50 -41 -7 0 -26 -16 -44 -35 -17 -19 -27 -35 -22 -35 11 0 71 48
89 72 23 31 139 105 172 110 l32 5 -23 -20 c-13 -10 7 -2 45 18 38 21 83 45
100 53 17 8 48 23 69 34 37 19 38 19 26 0 -7 -10 -28 -28 -47 -38 -19 -10 -48
-30 -63 -45 -35 -32 -75 -59 -89 -59 -6 0 -25 -16 -42 -35 -26 -31 -35 -35
-63 -29 -25 4 -52 -4 -128 -40 -53 -25 -100 -46 -104 -46 -10 0 -134 -126
-239 -241 -45 -50 -71 -88 -69 -99 2 -11 -6 -22 -20 -28 -21 -10 -72 -69 -132
-155 -150 -213 -148 -209 -265 -412 -25 -43 -91 -178 -158 -320 -76 -160 -182
-490 -224 -696 -9 -42 -18 -83 -20 -90 -3 -8 -14 -77 -25 -154 -107 -737 1
-1465 320 -2145 65 -139 158 -312 222 -412 21 -31 37 -60 37 -64 0 -8 108
-155 190 -259 101 -129 238 -281 346 -384 364 -347 739 -596 1219 -807 61 -27
116 -55 123 -64 8 -8 11 -9 7 -2 -5 10 -1 10 21 0 28 -13 28 -13 -21 -20 -28
-3 -94 -7 -147 -7 -97 -1 -112 -7 -83 -31 8 -7 12 -16 9 -21 -3 -5 4 -9 16 -9
12 0 36 -11 53 -23 41 -30 124 -62 207 -80 79 -18 53 -15 295 -27 110 -5 252
-16 315 -24 169 -23 879 -40 1079 -26 202 14 255 19 316 30 28 5 113 16 190
25 209 22 295 36 295 48 0 6 3 7 7 4 3 -4 11 -3 17 2 14 12 193 71 227 75 47
6 58 20 19 27 l-35 6 75 35 c192 91 283 140 440 237 90 55 163 104 196 131 18
14 64 50 103 80 39 29 71 61 71 70 0 12 2 12 9 2 6 -10 15 -7 39 13 18 15 32
33 32 41 0 8 7 14 15 14 8 0 15 8 15 18 0 14 2 15 10 2 11 -17 12 -16 39 37
22 44 35 57 25 25 -5 -14 -3 -14 10 2 9 11 16 26 16 34 0 7 5 10 10 7 6 -3 10
-1 10 4 0 6 11 11 23 11 24 0 57 27 57 47 0 36 120 166 137 149 11 -11 43 26
43 49 0 13 7 28 15 35 11 9 15 9 15 1 0 -7 5 -9 10 -6 6 3 8 16 5 28 -7 27 58
102 80 94 18 -8 48 39 52 83 2 19 11 38 19 43 7 4 21 22 30 38 11 23 21 30 35
26 11 -3 16 -1 13 5 -9 14 16 57 30 52 12 -5 41 29 65 75 8 15 9 21 2 17 -16
-10 -14 11 5 47 9 18 22 41 27 52 6 11 17 32 24 46 12 25 53 68 53 56 0 -3
-23 -44 -51 -92 -62 -105 -59 -124 4 -23 55 90 80 138 71 138 -4 0 2 10 14 23
31 33 127 240 113 245 -17 6 -13 22 5 22 21 0 125 232 110 247 -3 4 -6 -1 -6
-9 0 -9 -7 -21 -15 -28 -8 -7 -15 -23 -15 -36 0 -13 -4 -24 -10 -24 -15 0 -12
19 9 74 10 27 27 54 39 60 16 9 19 19 16 50 -4 43 18 121 49 176 22 38 39 107
38 155 -1 37 17 95 36 116 8 10 15 47 17 101 3 74 28 182 46 198 4 3 6 69 7
148 1 113 4 147 17 167 14 21 15 43 10 147 -4 80 -2 154 6 212 9 64 10 98 2
125 -19 63 -38 236 -31 266 8 29 -5 120 -20 139 -8 10 -13 50 -26 208 -3 32
-9 66 -14 75 -42 83 -57 152 -61 270 0 6 -6 18 -13 25 -27 27 -57 106 -73 188
-8 47 -21 92 -28 100 -37 43 -88 153 -91 197 -2 37 -8 51 -30 66 -15 11 -36
40 -46 64 l-19 45 -34 -21 c-56 -35 -77 -25 -23 12 40 27 46 36 41 57 -3 14
-10 27 -15 28 -5 2 -6 8 -3 14 3 5 -1 17 -9 26 -57 62 -77 87 -82 103 -4 11
-10 19 -14 19 -12 0 -92 -78 -124 -120 -23 -30 -27 -32 -33 -16 -10 26 3 43
84 109 68 55 92 87 56 73 -12 -4 -15 -2 -10 9 3 9 -13 33 -42 64 l-47 49 -33
-29 c-30 -27 -62 -38 -62 -22 0 3 20 25 44 47 38 35 43 44 35 65 -8 19 -12 21
-24 11 -18 -15 -20 1 -2 19 10 11 9 14 -1 18 -7 3 -37 30 -68 60 l-55 55 -38
-39 c-41 -44 -84 -121 -74 -136 3 -5 -4 -4 -16 2 -40 22 -19 70 73 164 49 51
60 75 25 57 -19 -10 -20 -10 -10 9 15 27 15 28 -15 35 -14 4 -41 23 -59 43
l-33 36 -37 -42 c-21 -22 -41 -41 -46 -41 -20 0 -7 39 26 76 37 41 47 66 18
43 -10 -8 -21 -18 -25 -24 -5 -7 -8 -7 -8 0 0 6 9 19 21 28 11 10 18 21 15 24
-3 3 -13 0 -22 -8 -15 -12 -16 -10 -9 20 6 28 5 33 -8 28 -8 -3 -24 5 -36 19
-11 13 -30 24 -42 24 -11 0 -18 4 -15 9 5 7 -14 21 -28 21 -9 0 -63 -92 -77
-129 -18 -52 -33 -61 -49 -31 -9 17 -6 31 14 75 14 30 29 55 34 55 5 0 23 20
41 45 18 25 28 45 22 45 -5 0 -13 -4 -16 -10 -12 -20 -26 -10 -15 11 14 26 14
26 -35 31 -34 2 -40 0 -40 -17 0 -11 -5 -19 -12 -18 -7 2 -10 -3 -7 -10 2 -7
-3 -21 -13 -30 -16 -13 -25 -14 -61 -5 -32 8 -50 8 -68 -1 -29 -13 -27 -14
-115 51 -37 26 -73 48 -82 48 -8 0 -17 6 -20 13 -2 7 -43 37 -91 66 -47 30
-86 56 -86 59 0 2 25 1 55 -3 l55 -6 26 61 c15 33 29 59 31 57 2 -2 -4 -21
-12 -42 -9 -20 -15 -38 -13 -40 2 -1 18 0 36 2 26 4 37 14 53 44 19 39 15 50
-10 27 -11 -11 -12 -7 -6 20 7 33 -2 41 -23 20 -9 -9 -12 -9 -12 0 0 28 -28 8
-56 -40 l-30 -53 -63 4 c-37 2 -73 -2 -86 -9 -18 -10 -28 -9 -56 6 -29 16 -97
43 -107 44 -11 0 60 -51 82 -60 32 -12 28 -21 -18 -48 l-34 -20 -58 39 c-33
21 -65 39 -71 39 -29 0 -10 -32 40 -68 93 -69 93 -69 119 -45 13 11 33 26 46
32 25 13 50 1 194 -91 66 -43 79 -48 98 -38 18 9 25 9 38 -4 35 -33 104 -86
113 -86 21 0 7 -17 -28 -34 l-36 -17 -39 38 c-34 34 -40 36 -54 22 -14 -14
-11 -21 25 -66 22 -28 37 -53 34 -56 -4 -5 -55 25 -73 43 -11 11 -116 60 -128
60 -12 0 -51 19 -62 30 -33 35 -350 150 -411 150 -11 0 -18 4 -15 8 2 4 -3 8
-12 9 -9 1 -33 5 -52 9 -19 5 -102 9 -185 9 -124 -1 -165 -4 -235 -23 -138
-37 -128 -36 -101 -14 15 12 21 24 16 32 -4 7 -2 16 5 20 7 4 11 13 9 19 -2 6
-29 -23 -59 -64 -30 -41 -56 -70 -58 -65 -2 5 24 54 57 108 34 54 61 102 61
105 0 4 -12 2 -26 -3 -43 -17 -90 -12 -100 10 -9 18 -11 18 -44 3 -134 -60
-369 -179 -387 -196 -13 -11 -25 -18 -28 -15 -3 3 27 43 67 89 88 101 150 180
123 157 -28 -23 -156 -41 -171 -23 -15 19 -75 4 -172 -42 l-77 -38 42 -3 c23
-2 59 2 80 7 22 6 41 7 46 2 11 -11 -87 -25 -142 -19 -24 2 -42 -1 -45 -8 -2
-6 -17 -14 -33 -17 -15 -3 -56 -29 -90 -57 -35 -28 -63 -47 -63 -42 0 4 5 13
10 18 6 6 8 18 4 28 -6 16 -8 16 -27 -1 -20 -17 -20 -17 -12 2 5 11 8 33 7 48
-1 15 3 40 9 55 8 22 8 25 -2 15 -7 -7 -21 -13 -31 -13 -11 0 -18 -7 -18 -20
0 -17 -3 -18 -24 -9 -21 10 -33 6 -87 -27 -35 -21 -72 -37 -84 -36 -24 2 -77
-18 -87 -32 -4 -6 -8 -21 -8 -33 0 -20 3 -21 32 -12 41 11 48 11 48 0 0 -12
-57 -31 -74 -25 -7 3 -28 -9 -45 -27 l-32 -32 -25 23 c-13 13 -24 19 -25 14
-1 -20 -18 33 -19 61 -1 28 -2 29 -15 11 -9 -12 -33 -20 -74 -25 -33 -4 -64
-11 -68 -16 -5 -4 8 -5 27 -2 19 3 29 3 22 0 -11 -4 -10 -8 2 -22 8 -9 20 -29
26 -46 l11 -30 -23 23 c-35 32 -54 28 -110 -23 -28 -25 -57 -45 -65 -45 -24 0
-113 -54 -113 -68 0 -8 -8 -12 -17 -10 -10 2 -18 8 -18 15 0 6 -3 15 -7 19 -4
4 -2 14 5 23 6 8 -3 5 -22 -8 -18 -13 -47 -24 -65 -25 -17 -1 -35 -4 -41 -8
-34 -26 -178 -118 -183 -118 -4 0 -29 -16 -56 -35 -27 -19 -55 -35 -62 -35 -7
0 -19 -8 -26 -17 -7 -10 -26 -24 -41 -32 -16 -9 -26 -20 -22 -28 2 -8 0 -11
-5 -8 -5 3 -18 -3 -28 -13 -10 -10 -26 -21 -35 -25 -9 -3 -17 -13 -17 -22 0
-9 -9 -15 -23 -15 -35 0 -38 9 -15 40 42 58 -3 79 -71 34 -34 -22 -43 -24 -63
-13 -13 6 -25 13 -27 15 -2 2 22 28 52 59 36 36 57 51 60 43 3 -7 6 -4 6 8 1
30 9 34 38 19 23 -12 27 -11 55 21 16 18 52 52 79 75 l50 42 31 -23 32 -23 55
29 c61 33 84 59 62 73 -9 6 -32 0 -64 -15 -51 -23 -70 -22 -95 9 -10 12 -5 20
25 43 20 16 46 34 57 41 12 7 16 12 10 13 -6 0 -30 -15 -54 -32 -24 -18 -49
-37 -56 -42 -16 -12 -90 44 -127 95 -18 24 -38 39 -59 43 -46 10 -138 14 -138
6 0 -3 19 -13 43 -21 28 -10 50 -28 66 -52 13 -20 32 -37 41 -37 9 0 36 -18
61 -40 l44 -39 -75 -75 c-41 -42 -80 -76 -86 -76 -6 0 -41 -31 -79 -69 l-69
-68 -48 22 c-26 12 -63 35 -82 51 -28 25 -41 29 -78 26 -41 -3 -44 -6 -46 -34
-3 -42 50 -124 61 -95 4 9 8 8 16 -3 16 -22 13 -30 -6 -24 -13 4 -11 0 5 -12
28 -21 28 -31 -2 -96 -13 -29 -26 -65 -30 -80 -7 -32 -35 -63 -46 -51 -8 8
-13 37 -11 61 0 6 10 12 21 12 22 0 67 87 51 103 -5 5 -11 4 -15 -2 -4 -6 -13
-11 -19 -11 -8 0 -8 3 2 9 10 7 5 20 -23 61 -20 29 -36 58 -36 65 0 13 -30 25
-67 25 -13 0 -32 9 -42 19 -11 11 -23 16 -28 13 -4 -4 1 3 11 16 22 26 34 30
15 5 -11 -15 -11 -16 1 -6 8 7 15 21 16 30 2 9 31 42 65 73 35 30 101 95 148
143 47 49 103 99 126 112 22 13 58 43 80 66 l40 41 -50 -30 c-76 -46 -215 -95
-239 -84 -18 8 -15 12 29 37 28 16 66 41 85 55 74 56 158 98 211 105 l54 7
-25 -27 -25 -27 51 31 c54 33 81 58 72 67 -3 2 -22 -5 -42 -17 -25 -14 -47
-20 -69 -16 -22 3 -47 -3 -80 -20 -27 -13 -60 -23 -74 -21 -23 3 -22 5 23 38
107 77 148 100 184 101 27 0 31 2 15 8 -18 7 -17 9 10 24 43 23 21 21 -25 -3
-22 -11 -40 -18 -40 -14 0 3 -14 -6 -31 -20 -17 -14 -35 -24 -39 -21 -5 3 -24
-10 -42 -28 -18 -18 -57 -50 -87 -71 -48 -34 -58 -37 -95 -32 -76 12 -76 21 0
58 38 18 71 36 72 41 7 15 61 37 76 31 11 -4 15 -2 11 8 -4 9 20 29 72 61 76
45 80 46 137 40 53 -5 57 -8 41 -20 -31 -22 -13 -15 55 22 62 33 63 35 32 35
-20 0 -31 4 -27 10 9 14 5 13 -40 -15z m1860 -296 c-7 -11 -86 -12 -112 -1
-12 5 2 9 42 12 65 6 78 4 70 -11z m-2235 -10 c0 -20 -135 -98 -165 -96 -13 1
-21 -5 -23 -19 -3 -24 -57 -58 -75 -47 -6 4 -19 6 -29 5 -33 -6 -28 18 11 42
21 14 41 29 42 33 2 5 30 28 62 50 54 39 63 42 118 40 32 -1 59 -5 59 -8z
m2060 1 c11 -7 5 -10 -23 -10 -23 0 -36 4 -32 10 8 13 35 13 55 0z m-2087
-166 c-67 -67 -167 -134 -197 -134 -19 1 -18 3 9 26 26 23 27 24 5 13 -14 -7
-60 -34 -102 -61 -43 -26 -88 -48 -100 -48 -20 0 -17 5 22 41 25 22 63 57 85
77 22 21 61 55 87 75 40 33 49 37 66 26 17 -11 32 -8 98 18 44 17 80 30 82 28
2 -2 -23 -29 -55 -61z m3788 10 c138 -76 138 -80 -3 -77 -246 5 -245 5 -209
13 34 8 76 40 53 40 -6 0 -56 -18 -109 -40 -96 -39 -133 -48 -133 -32 0 5 51
31 113 57 61 27 128 57 147 67 19 9 40 17 46 18 6 0 49 -21 95 -46z m-4086
-34 c13 0 26 -4 30 -9 6 -11 -42 -51 -61 -51 -8 0 -14 -7 -14 -15 0 -31 -38
-50 -105 -52 -36 0 -65 0 -65 2 0 1 17 14 38 28 25 18 45 24 60 21 18 -5 22
-2 22 19 0 26 62 86 68 67 2 -6 14 -10 27 -10z m2518 13 c-13 -2 -33 -2 -45 0
-13 2 -3 4 22 4 25 0 35 -2 23 -4z m-140 -20 c-7 -2 -19 -2 -25 0 -7 3 -2 5
12 5 14 0 19 -2 13 -5z m2507 -37 c0 -2 -8 -10 -17 -17 -16 -13 -17 -12 -4 4
13 16 21 21 21 13z m-5066 -21 c-1 -13 -76 -55 -86 -48 -5 2 -16 2 -26 -2 -14
-5 -14 -7 -2 -15 12 -8 8 -15 -20 -39 -19 -17 -52 -38 -72 -47 -20 -10 -35
-21 -32 -26 3 -4 -3 -5 -12 -1 -11 4 -15 3 -10 -5 3 -6 1 -14 -5 -18 -8 -4 -9
-3 -5 4 9 15 5 15 -28 2 -14 -5 -26 -14 -26 -20 0 -7 7 -7 23 1 12 7 18 7 12
1 -5 -6 -34 -20 -64 -31 l-54 -20 24 25 c13 13 56 41 96 61 39 21 70 39 69 41
-2 2 -23 -6 -46 -18 -23 -12 -44 -19 -46 -17 -11 11 108 102 185 142 81 42
127 53 125 30z m4876 5 c0 -5 9 -10 20 -10 11 0 20 -7 20 -16 0 -13 -5 -12
-30 6 -32 22 -37 30 -20 30 6 0 10 -4 10 -10z m-2603 -6 c-3 -3 -12 -4 -19 -1
-8 3 -5 6 6 6 11 1 17 -2 13 -5z m-50 -10 c-3 -3 -12 -4 -19 -1 -8 3 -5 6 6 6
11 1 17 -2 13 -5z m2663 -128 c0 7 12 20 27 28 25 13 28 12 40 -11 16 -31 16
-43 2 -43 -6 0 -9 7 -5 15 3 8 1 15 -4 15 -6 0 -10 -6 -10 -14 0 -8 -13 -24
-30 -36 -29 -21 -30 -21 -30 -2 0 24 -27 37 -45 22 -20 -17 -113 67 -114 102
-1 16 6 31 17 37 14 8 29 -2 85 -58 37 -38 67 -62 67 -55z m127 82 c-3 -8 -6
-5 -6 6 -1 11 2 17 5 13 3 -3 4 -12 1 -19z m-5034 -27 c35 9 77 8 77 -2 0 -3
-17 -18 -37 -32 -34 -24 -39 -25 -60 -12 -12 8 -29 15 -38 15 -8 0 -15 3 -15
6 0 11 35 33 38 24 2 -4 17 -4 35 1z m294 -15 c-3 -8 -25 -29 -49 -46 -24 -17
-41 -34 -39 -38 11 -18 -170 -84 -186 -69 -9 10 44 55 74 63 12 3 29 17 38 30
18 28 64 55 120 70 45 12 50 11 42 -10z m4733 -8 c0 -12 -3 -18 -7 -14 -10 10
-11 46 -1 40 4 -3 8 -15 8 -26z m-3465 -3 c-43 -26 -55 -30 -55 -17 0 10 59
40 80 41 8 1 -3 -10 -25 -24z m3605 5 c0 -5 -4 -10 -10 -10 -5 0 -10 -7 -10
-15 0 -10 -10 -15 -28 -15 -15 0 -33 -5 -40 -12 -6 -6 -15 -8 -19 -4 -10 10
25 36 48 36 9 0 22 7 29 15 14 17 30 20 30 5z m-484 -82 c30 -24 54 -46 54
-51 0 -4 -35 -4 -77 0 -88 9 -251 11 -302 3 -19 -3 -36 0 -37 5 -2 6 60 25
139 44 78 18 147 34 152 36 6 2 11 4 13 4 2 1 28 -18 58 -41z m-4708 -5 c17
-3 32 -9 32 -13 0 -16 -29 -30 -61 -30 -19 0 -45 0 -58 0 -13 -1 -26 1 -28 4
-10 10 52 55 67 50 8 -3 30 -8 48 -11z m5002 7 c0 -5 -4 -10 -10 -10 -5 0 -10
5 -10 10 0 6 5 10 10 10 6 0 10 -4 10 -10z m78 -20 c14 0 13 -2 -3 -14 -29
-20 -65 -29 -65 -17 0 6 9 11 19 11 23 0 36 16 21 25 -5 3 -10 12 -10 18 0 7
5 4 11 -5 5 -10 18 -18 27 -18z m-5244 -14 c-5 -13 -55 -52 -61 -48 -2 0 -20
-6 -40 -14 -45 -19 -37 -9 36 40 57 39 74 44 65 22z m1266 -105 c6 -34 9 -65
6 -68 -5 -5 -26 62 -26 83 0 6 -6 16 -12 22 -10 7 -25 -2 -58 -34 -25 -24 -46
-40 -48 -35 -5 15 112 121 120 108 3 -7 11 -41 18 -76z m2139 73 c379 -55 750
-218 1051 -461 93 -75 271 -254 345 -348 139 -174 282 -419 364 -625 52 -131
96 -271 105 -336 3 -22 3 -30 0 -20 -4 13 -8 15 -14 7 -5 -9 -9 -8 -13 4 -4 9
-3 13 3 10 6 -3 10 0 10 9 0 57 -44 63 -67 9 -9 -21 -18 -32 -20 -25 -3 7 -17
-1 -39 -23 -23 -24 -33 -30 -31 -18 1 10 6 24 10 31 10 15 0 32 -19 32 -8 0
-12 -5 -9 -10 4 -6 11 -8 16 -5 5 4 9 1 9 -5 0 -6 -12 -9 -27 -8 -20 2 -32 12
-40 32 -16 34 -16 39 -3 31 6 -3 10 -1 10 4 0 6 -6 11 -13 11 -7 0 -25 35 -41
78 -16 42 -57 136 -93 207 -294 590 -789 984 -1397 1111 -151 31 -408 43 -566
25 -311 -36 -616 -148 -879 -323 -58 -39 -119 -82 -136 -95 -16 -14 -50 -41
-75 -61 -86 -70 -277 -267 -315 -325 -10 -15 -27 -27 -39 -27 -15 0 -17 -3 -7
-9 10 -7 10 -10 1 -16 -15 -10 -29 12 -23 35 3 12 -3 22 -16 29 -12 7 -18 17
-15 26 9 24 -15 48 -33 33 -11 -9 -13 -8 -11 2 2 7 -8 20 -22 27 l-25 15 28
-6 c38 -9 49 20 16 45 -23 18 -24 18 -41 -4 -10 -12 -17 -26 -15 -32 1 -5 -15
-28 -36 -50 -56 -60 -58 -111 -9 -167 20 -24 74 -33 103 -18 22 11 23 11 8 -4
-50 -53 -159 15 -159 98 0 28 19 76 30 76 7 0 18 28 16 41 -1 3 11 22 27 42
15 19 27 40 27 45 0 5 9 12 21 15 12 3 18 10 15 16 -3 5 -1 15 6 23 7 7 26 32
42 55 34 52 232 245 336 329 283 229 651 396 1000 454 167 28 159 27 359 29
121 0 219 -4 290 -15z m-3310 -6 c21 7 31 8 31 1 0 -6 -9 -13 -20 -16 -11 -3
-17 -9 -14 -15 3 -5 -5 -6 -19 -3 -20 5 -29 1 -42 -19 -9 -14 -14 -29 -11 -34
3 -6 -1 -15 -8 -21 -10 -8 -16 -9 -21 -1 -3 5 1 10 11 10 13 0 14 3 5 13 -6 8
-8 17 -4 20 3 4 0 13 -7 22 -11 13 -9 19 10 35 17 15 26 17 39 8 13 -8 27 -8
50 0z m206 -7 c-9 -8 -81 -35 -97 -36 -3 0 -10 -3 -13 -7 -4 -4 -15 -3 -25 2
-10 5 -20 7 -24 5 -3 -3 -4 -2 -1 2 3 4 24 8 47 10 23 3 53 11 67 18 29 16 60
20 46 6z m1225 -1 c0 -5 -5 -10 -11 -10 -11 0 -186 -137 -208 -163 -7 -9 -17
-14 -22 -11 -13 8 -11 24 2 24 7 0 32 17 57 38 71 59 166 131 175 132 4 0 7
-4 7 -10z m-1138 -43 c7 -7 31 -17 53 -22 46 -11 52 -33 15 -52 -13 -6 -28
-22 -32 -34 -6 -16 -14 -20 -31 -15 -12 3 -32 6 -44 6 -13 0 -23 4 -23 10 0 5
6 7 13 4 8 -3 25 4 38 16 15 13 18 20 8 18 -19 -4 -83 49 -69 57 5 3 10 1 10
-4 0 -20 32 -11 37 9 6 24 8 24 25 7z m4618 -6 c0 -11 -25 -21 -51 -21 -24 0
-25 17 -1 23 30 8 52 7 52 -2z m-5225 -41 c-3 -4 -14 -10 -26 -13 -19 -5 -20
-4 -5 12 9 10 13 22 9 26 -5 5 0 3 9 -4 10 -7 16 -17 13 -21z m461 11 c-10
-11 -30 -23 -44 -27 -35 -10 -32 -9 -65 -22 -16 -7 -33 -12 -40 -12 -20 0 7
16 58 35 28 10 59 24 70 32 29 19 41 16 21 -6z m724 -51 c0 -5 -4 -10 -10 -10
-5 0 -10 5 -10 10 0 6 5 10 10 10 6 0 10 -4 10 -10z m123 -49 c13 -54 2 -72
-17 -27 l-17 39 -45 -44 c-24 -24 -44 -41 -44 -38 0 11 96 107 105 105 5 -1
13 -17 18 -35z m3897 31 c0 -7 -145 -62 -162 -62 -45 0 92 68 140 70 12 0 22
-3 22 -8z m-4145 -43 c4 -22 5 -42 3 -45 -2 -2 -19 1 -38 6 -18 5 -36 7 -40 5
-5 -3 -6 4 -3 15 3 11 14 20 24 20 12 0 19 7 19 20 0 38 28 21 35 -21z m4845
27 c0 -3 -4 -8 -10 -11 -5 -3 -10 -1 -10 4 0 6 5 11 10 11 6 0 10 -2 10 -4z
m-5305 -34 c-3 -3 -11 0 -18 7 -9 10 -8 11 6 5 10 -3 15 -9 12 -12z m5095 8
c0 -6 -8 -23 -17 -38 -9 -15 -17 -28 -17 -28 -1 -1 -11 -5 -23 -8 -32 -10 -31
23 2 58 24 26 55 35 55 16z m-326 -46 c52 -24 95 -58 50 -40 -10 5 -48 19 -83
32 -74 27 -84 34 -49 34 14 0 51 -12 82 -26z m-5014 -39 c-7 -8 -16 -12 -21
-9 -13 8 -1 24 18 24 13 0 13 -3 3 -15z m790 -39 c0 -16 -24 -38 -33 -30 -8 9
11 44 23 44 6 0 10 -6 10 -14z m-482 -43 c12 -20 20 -38 17 -41 -3 -3 -5 0 -5
7 0 7 -4 9 -10 6 -5 -3 -10 -2 -10 3 0 5 -16 17 -35 28 -42 22 -46 42 -7 36
17 -3 35 -17 50 -39z m188 -19 c8 -18 14 -47 14 -63 0 -29 -1 -30 -27 -20 -19
7 -29 7 -31 0 -2 -6 -9 -11 -15 -11 -8 0 -7 4 1 12 20 20 15 47 -8 41 -16 -4
-19 -2 -14 11 3 9 11 13 17 9 6 -4 8 3 3 21 -4 15 -4 31 -1 36 11 17 48 -4 61
-36z m-294 -17 c41 -34 52 -39 87 -35 23 2 41 2 41 0 0 -11 -34 -52 -44 -52
-6 0 -4 5 4 11 12 8 12 10 -5 8 -57 -4 -78 3 -120 42 -25 23 -45 36 -45 30 0
-6 -4 -11 -9 -11 -5 0 -3 14 6 30 16 34 17 34 85 -23z m5482 28 c-4 -8 -13
-15 -21 -15 -13 0 -13 3 -3 15 7 8 16 15 21 15 5 0 6 -7 3 -15z m-130 -61 c3
-8 2 -12 -4 -9 -6 3 -10 10 -10 16 0 14 7 11 14 -7z m-5466 -20 c-8 -18 -14
-21 -24 -13 -17 14 -8 34 16 36 17 1 18 -1 8 -23z m5492 -25 c0 -6 -4 -7 -10
-4 -5 3 -10 11 -10 16 0 6 5 7 10 4 6 -3 10 -11 10 -16z m-5307 -25 c3 -3 3
-12 0 -20 -4 -11 -7 -11 -19 1 -8 7 -14 16 -14 19 0 8 25 8 33 0z m112 -34
c-16 -16 -31 -27 -34 -24 -6 6 45 54 56 54 4 0 -6 -13 -22 -30z m3170 -16 c-8
-20 -15 -39 -15 -42 0 -3 -3 -2 -7 1 -4 4 -19 -5 -35 -20 -48 -46 -42 -17 8
41 27 31 52 56 57 56 4 0 0 -16 -8 -36z m-2181 -106 c-72 -73 -168 -179 -213
-236 -45 -56 -87 -100 -92 -97 -5 4 -9 -1 -9 -9 0 -9 -5 -16 -11 -16 -5 0 -7
6 -4 13 4 6 -2 2 -13 -10 -32 -36 -35 -27 -6 20 70 110 259 334 340 400 20 16
21 16 19 -2 -1 -11 -8 -28 -16 -38 -8 -10 17 10 56 45 38 34 72 62 74 62 3 0
-54 -60 -125 -132z m1646 113 c-19 -6 -10 -9 40 -14 105 -10 274 -47 293 -64
37 -35 17 -90 -135 -363 -150 -268 -280 -478 -303 -488 -12 -6 -54 -12 -91
-13 l-69 -2 -140 329 c-78 181 -158 369 -178 417 l-37 89 28 27 c21 21 50 32
127 49 55 13 129 27 165 31 80 10 335 12 300 2z m2570 -15 c0 -20 -58 -79 -70
-71 -17 10 -11 26 20 56 33 32 50 37 50 15z m-4966 -35 c10 -17 15 -35 12 -38
-9 -10 -67 57 -60 68 10 16 27 5 48 -30z m5181 19 c-10 -11 -22 -17 -27 -14
-12 8 11 34 30 34 13 0 12 -3 -3 -20z m-5746 -80 c34 -22 61 -46 58 -53 -5
-15 -37 -22 -46 -10 -3 5 -27 26 -53 47 -42 34 -53 56 -29 56 4 0 36 -18 70
-40z m99 -55 c-6 -14 -15 -25 -20 -25 -5 0 -1 11 8 25 9 14 18 25 20 25 2 0
-2 -11 -8 -25z m-68 -70 c0 -14 -4 -25 -9 -25 -4 0 -6 11 -3 25 2 14 6 25 8
25 2 0 4 -11 4 -25z m391 -30 c11 -25 24 -45 29 -45 6 0 10 -6 10 -12 -1 -17
-80 73 -80 90 0 27 22 9 41 -33z m5449 16 c0 -12 -29 -35 -36 -28 -11 10 5 37
21 37 8 0 15 -4 15 -9z m-5842 -49 c2 -13 -2 -30 -9 -38 -10 -12 -13 -12 -24
2 -16 23 -7 66 14 62 9 -2 17 -14 19 -26z m1919 22 c-3 -3 6 -16 19 -28 21
-18 33 -50 65 -186 65 -267 140 -653 135 -683 -6 -30 -97 -145 -130 -164 -11
-7 -15 -12 -8 -13 9 0 11 -7 7 -19 -3 -11 0 -23 7 -28 20 -12 120 -43 143 -43
11 0 47 30 87 73 37 39 68 68 68 62 0 -5 -32 -43 -70 -84 -68 -71 -71 -73
-107 -66 -61 11 -989 322 -1018 341 -38 25 -23 28 24 5 22 -12 53 -21 70 -21
28 0 29 1 18 30 -13 35 0 66 89 212 80 132 155 229 274 352 94 97 299 266 324
266 5 0 7 -3 3 -6z m1862 -54 c86 -63 110 -90 39 -41 -43 30 -68 28 -68 -5 0
-8 -7 -14 -15 -14 -8 0 -15 5 -15 10 0 6 -8 10 -17 10 -17 -1 -17 -1 0 -14 20
-15 22 -26 6 -26 -7 0 -17 -7 -23 -16 -9 -12 -17 -13 -40 -4 -23 8 -27 8 -19
-2 5 -7 35 -44 65 -83 67 -83 161 -233 211 -332 44 -86 110 -244 105 -249 -3
-2 -19 33 -37 79 -68 169 -180 360 -299 509 l-62 78 27 80 c20 59 31 80 44 80
10 0 54 -27 98 -60z m2021 -13 c0 -7 -15 -28 -34 -46 -33 -32 -34 -32 -41 -12
-5 15 1 27 22 46 31 27 53 32 53 12z m-5727 -70 c22 -39 15 -63 -15 -52 -21 8
-61 83 -54 102 9 22 41 -1 69 -50z m-273 -32 c30 -16 41 -45 17 -45 -16 0 -97
59 -97 71 0 9 31 -1 80 -26z m5920 1 c0 -21 -58 -66 -75 -60 -20 8 -20 8 18
43 34 33 57 40 57 17z m-2046 -101 c27 -38 27 -39 3 -13 -35 37 -46 17 -14
-25 40 -53 106 -165 159 -269 47 -95 122 -277 116 -283 -4 -4 -328 -109 -399
-129 -42 -12 -63 -14 -83 -6 -24 9 -26 8 -17 -9 6 -10 8 -21 4 -24 -11 -11 25
-54 55 -66 28 -12 49 -5 288 89 143 56 351 137 464 180 113 43 228 89 255 101
28 13 55 25 60 28 6 2 4 -3 -3 -12 -15 -18 -88 -49 -328 -141 -289 -110 -475
-182 -583 -225 -57 -22 -115 -41 -130 -41 -19 0 -42 16 -83 58 -69 69 -89 110
-77 161 14 60 199 622 222 672 l21 46 21 -26 c12 -14 34 -44 49 -66z m17 78
c13 -15 12 -15 -8 -4 -24 12 -29 21 -14 21 5 0 15 -7 22 -17z m2255 -35 c4 -6
-1 -17 -12 -25 -15 -11 -19 -11 -27 3 -14 25 24 46 39 22z m-4772 -34 c9 -24
2 -26 -12 -4 -7 11 -8 20 -3 20 5 0 12 -7 15 -16z m-1404 -161 c1 -10 3 -44 6
-75 3 -32 2 -58 -3 -58 -22 0 -33 28 -33 87 0 49 3 63 15 63 8 0 15 -8 15 -17z
m976 -89 c-68 -136 -192 -507 -237 -714 -14 -61 -18 -71 -14 -34 13 121 100
427 172 599 35 84 95 206 100 201 2 -2 -7 -25 -21 -52z m5304 3 c0 -14 -35
-39 -44 -30 -3 4 -6 15 -6 25 0 13 7 18 25 18 14 0 25 -6 25 -13z m-6188 -94
c43 -42 45 -48 21 -57 -20 -8 -83 49 -83 76 0 28 21 22 62 -19z m6118 -2 c0
-5 -13 -19 -30 -31 -35 -25 -41 -8 -7 21 24 20 37 24 37 10z m-80 -79 c0 -5
-17 -21 -37 -35 -48 -34 -72 -19 -28 18 30 24 65 33 65 17z m-1500 -16 c0 -11
-19 -15 -25 -6 -3 5 1 10 9 10 9 0 16 -2 16 -4z m-1556 -89 c45 3 90 10 101
16 19 9 19 8 3 -8 -13 -14 -38 -19 -97 -23 -94 -5 -127 1 -141 28 -11 20 -11
20 21 1 28 -17 44 -19 113 -14z m3276 -22 c0 -17 -31 -28 -43 -16 -5 5 -7 16
-4 25 7 17 47 10 47 -9z m-6568 -70 c-2 -14 -8 -25 -13 -25 -5 0 -8 11 -7 25
1 14 8 25 14 25 7 0 9 -10 6 -25z m1246 -86 c12 0 13 -2 4 -6 -15 -6 -58 31
-74 62 -6 11 4 3 22 -17 17 -21 39 -38 48 -39z m2181 51 c10 -6 -12 -7 -60 -3
-79 6 -177 -6 -264 -33 -64 -20 -113 -42 -120 -54 -4 -6 -11 -8 -16 -4 -12 7
-74 -33 -129 -83 -22 -19 -40 -30 -40 -24 0 6 28 33 63 60 70 56 206 115 325
142 79 18 209 18 241 -1z m21 -50 c0 -5 -12 -13 -27 -16 -16 -4 -33 -15 -40
-24 -9 -13 -34 -19 -95 -23 -102 -8 -159 -25 -255 -77 -72 -38 -103 -49 -103
-32 1 25 177 103 275 121 33 7 70 17 82 23 12 6 34 8 49 5 17 -3 42 2 63 14
40 21 51 23 51 9z m-3410 -10 c0 -5 -5 -10 -11 -10 -5 0 -7 5 -4 10 3 6 8 10
11 10 2 0 4 -4 4 -10z m3160 -2 c-44 -12 -169 -53 -192 -63 -10 -4 -18 -3 -18
3 0 13 178 72 215 71 l30 -1 -35 -10z m2095 -18 c-3 -5 -1 -10 5 -10 6 0 8 -5
4 -11 -4 -8 -9 -7 -15 2 -7 12 -3 29 7 29 3 0 2 -4 -1 -10z m-1610 -30 c23
-16 62 -51 85 -77 50 -57 140 -190 140 -206 0 -7 -19 17 -43 53 -93 139 -107
157 -171 205 -36 27 -66 51 -66 52 0 8 15 0 55 -27z m2305 25 c0 -2 -10 -9
-22 -15 -22 -11 -22 -10 -4 4 21 17 26 19 26 11z m-2556 -36 c37 14 71 6 74
-17 3 -20 -1 -22 -40 -22 -40 0 -44 -3 -61 -39 -30 -66 -67 -66 -67 1 0 51 37
103 59 83 9 -9 21 -11 35 -6z m279 -97 c15 -20 42 -59 59 -85 17 -26 33 -45
36 -42 3 2 -2 13 -10 22 -8 10 -19 25 -23 33 -8 13 -7 13 9 1 9 -8 32 -41 51
-73 36 -61 46 -86 20 -52 -23 31 -17 8 16 -57 17 -34 28 -63 26 -66 -3 -2 -27
37 -53 87 -32 63 -68 115 -114 162 -48 50 -66 76 -63 89 7 26 14 23 46 -19z
m-3643 8 c0 -11 -7 -20 -15 -20 -8 0 -15 9 -15 20 0 11 7 20 15 20 8 0 15 -9
15 -20z m6557 -14 c-2 -6 -13 -12 -25 -14 -18 -3 -22 2 -22 22 0 24 2 25 25
14 14 -6 24 -16 22 -22z m-3732 14 c-3 -5 -12 -7 -20 -3 -21 7 -19 13 6 13 11
0 18 -4 14 -10z m-115 -40 c0 -5 -12 -10 -27 -10 -22 0 -25 2 -13 10 20 13 40
13 40 0z m638 1 c10 -6 8 -10 -9 -14 -28 -7 -46 2 -28 14 17 11 21 11 37 0z
m-3255 -36 c41 -39 45 -50 20 -60 -13 -4 -29 5 -55 34 -21 22 -38 45 -38 51 0
21 36 8 73 -25z m3267 -10 c18 9 34 14 37 11 3 -3 -6 -11 -21 -17 -14 -7 -26
-16 -26 -20 0 -12 50 -20 88 -13 33 5 35 5 19 -7 -16 -13 -13 -18 34 -64 28
-27 53 -62 56 -78 6 -32 37 -57 70 -57 13 0 23 -4 23 -10 0 -5 -7 -10 -16 -10
-14 0 -15 -7 -10 -40 3 -22 5 -40 3 -40 -2 0 -18 29 -36 65 -57 113 -187 212
-311 235 -127 24 -273 -37 -379 -158 -28 -32 -57 -59 -64 -60 -6 0 -32 -4 -57
-7 -49 -6 -52 -8 47 35 22 11 49 31 60 46 24 36 101 115 133 136 21 15 23 19
10 29 -12 9 -11 10 5 4 45 -17 66 -16 92 1 21 14 46 18 101 18 41 -1 72 3 72
9 0 6 9 2 19 -7 18 -16 21 -16 51 -1z m-3496 -10 c-5 -12 -10 -13 -20 -4 -19
15 -18 19 6 19 13 0 18 -5 14 -15z m2799 -9 c20 -21 28 -23 65 -16 46 8 52 6
52 -23 0 -16 -6 -19 -45 -15 -30 2 -45 -1 -45 -9 0 -7 -6 -16 -12 -20 -7 -4
-19 -16 -27 -25 -11 -15 -11 -22 4 -44 9 -14 14 -28 11 -32 -8 -8 -56 38 -56
54 0 7 -7 19 -15 27 -13 14 -13 20 0 58 14 40 32 69 42 69 2 0 14 -11 26 -24z
m2692 -6 c-3 -5 -11 -10 -16 -10 -6 0 -7 5 -4 10 3 6 11 10 16 10 6 0 7 -4 4
-10z m-3758 -67 c124 -64 379 -205 515 -284 57 -33 69 -45 78 -77 14 -50 12
-172 -3 -199 -21 -38 -489 -397 -621 -477 -30 -18 -52 -37 -48 -41 4 -4 0 -6
-8 -3 -29 9 -59 104 -96 303 -27 141 -27 566 -1 705 16 83 37 140 52 140 3 0
62 -30 132 -67z m4782 5 c-34 -21 -73 -37 -80 -32 -15 9 -10 24 9 24 10 0 27
6 38 14 11 9 23 11 28 5 5 -5 8 -10 5 -11z m-1472 -30 c-3 -8 -6 -5 -6 6 -1
11 2 17 5 13 3 -3 4 -12 1 -19z m-4040 -20 c-3 -7 -5 -2 -5 12 0 14 2 19 5 13
2 -7 2 -19 0 -25z m2738 22 c-3 -5 -12 -10 -18 -10 -7 0 -6 4 3 10 19 12 23
12 15 0z m826 -235 c1 -161 -12 -329 -25 -342 -2 -2 -33 11 -70 29 -45 22 -69
29 -76 22 -7 -7 80 -53 282 -147 391 -181 507 -230 545 -231 26 0 30 -3 21
-13 -20 -24 -61 -8 -488 190 -41 19 -104 48 -140 65 -36 16 -135 62 -220 101
-85 40 -165 82 -177 94 -19 20 -22 34 -25 134 -4 139 -12 128 202 253 l155 90
8 -28 c4 -15 8 -112 8 -217z m76 213 c-3 -7 -5 -2 -5 12 0 14 2 19 5 13 2 -7
2 -19 0 -25z m957 20 c-19 -34 -50 -58 -73 -57 -24 1 -24 1 5 10 18 5 39 20
48 34 17 25 33 36 20 13z m-2088 -37 c59 -27 121 -86 150 -143 33 -66 30 -74
-6 -12 -59 103 -148 154 -269 154 -101 0 -180 -45 -256 -145 -14 -19 -15 -19
-8 -1 5 14 3 17 -6 11 -10 -6 -11 -3 -3 11 12 24 52 60 52 49 0 -5 12 3 28 17
15 15 52 38 82 52 70 33 173 35 236 7z m454 -35 c0 -6 -7 -2 -15 8 -8 11 -15
25 -15 30 0 6 7 2 15 -8 8 -11 15 -25 15 -30z m-905 -28 c-22 -32 -34 -43 -29
-28 8 28 54 93 61 86 3 -2 -12 -28 -32 -58z m-211 43 c13 -5 16 -10 8 -15 -11
-6 -52 9 -52 19 0 7 22 5 44 -4z m1166 -12 c0 -5 -4 -9 -10 -9 -5 0 -10 7 -10
16 0 8 5 12 10 9 6 -3 10 -10 10 -16z m1037 -26 c-3 -10 -5 -2 -5 17 0 19 2
27 5 18 2 -10 2 -26 0 -35z m-1581 -8 c49 -14 109 -64 133 -112 21 -41 11 -36
-20 10 -77 116 -249 130 -356 29 -18 -16 -33 -26 -33 -22 0 5 20 26 45 48 68
59 140 74 231 47z m1181 -47 c-2 -13 -4 -3 -4 22 0 25 2 35 4 23 2 -13 2 -33
0 -45z m-1821 36 c-25 -18 -32 -18 -39 0 -4 9 4 13 26 14 30 1 31 0 13 -14z
m3878 -71 c-26 -19 -34 -16 -34 10 0 33 10 40 32 20 18 -16 18 -18 2 -30z
m-5849 7 c3 -5 1 -10 -4 -10 -6 0 -11 5 -11 10 0 6 2 10 4 10 3 0 8 -4 11 -10z
m2149 -76 c-19 -72 -34 -91 -34 -44 0 35 42 140 48 121 2 -6 -4 -41 -14 -77z
m2053 9 c-2 -16 -4 -3 -4 27 0 30 2 43 4 28 2 -16 2 -40 0 -55z m-1988 -15
c-24 -76 -34 -87 -26 -30 4 37 29 92 41 92 2 0 -5 -28 -15 -62z m-2192 16 c-3
-3 -12 -4 -19 -1 -8 3 -5 6 6 6 11 1 17 -2 13 -5z m286 -53 c-2 -3 -16 8 -31
24 l-27 28 31 -24 c17 -13 30 -26 27 -28z m2692 29 c-28 -12 -47 -12 -40 0 3
6 18 10 33 9 24 0 25 -1 7 -9z m-709 -26 c-4 -9 -9 -15 -11 -12 -3 3 -3 13 1
22 4 9 9 15 11 12 3 -3 3 -13 -1 -22z m674 -49 c0 -13 6 -25 13 -28 19 -7 -14
-62 -38 -62 -16 0 -21 8 -23 41 -2 22 2 53 8 68 9 23 13 26 25 16 8 -7 15 -23
15 -35z m-369 -7 c7 -18 14 -35 15 -37 2 -2 17 13 34 33 18 20 41 36 52 36 16
0 11 -11 -32 -60 -29 -33 -58 -60 -66 -60 -7 0 -19 18 -25 40 l-12 40 -64 0
c-48 0 -63 3 -63 14 0 17 24 23 96 25 49 1 52 0 65 -31z m487 7 c2 -18 -3 -20
-45 -19 -41 1 -48 4 -51 23 -3 21 0 22 45 19 39 -2 49 -7 51 -23z m-662 -2
c-3 -10 -10 -37 -16 -60 -7 -28 -16 -43 -27 -43 -12 0 -14 6 -8 33 4 17 8 43
10 57 3 32 2 30 26 30 15 0 19 -5 15 -17z m1371 -65 c-2 -13 -4 -3 -4 22 0 25
2 35 4 23 2 -13 2 -33 0 -45z m-1263 28 c-11 -8 -33 -16 -49 -19 -23 -3 -20
-4 14 -6 36 -1 41 -3 32 -15 -12 -14 -111 -27 -111 -15 0 4 3 21 6 38 6 31 7
31 67 31 56 0 60 -1 41 -14z m-2524 -6 c0 -5 -2 -10 -4 -10 -3 0 -8 5 -11 10
-3 6 -1 10 4 10 6 0 11 -4 11 -10z m2030 -40 c-12 -23 -49 -45 -58 -34 -4 4
-1 9 5 11 7 3 23 13 35 23 29 24 31 24 18 0z m-2050 -4 c0 -3 -4 -8 -10 -11
-5 -3 -10 -1 -10 4 0 6 5 11 10 11 6 0 10 -2 10 -4z m3004 -22 c4 -9 3 -20 0
-23 -4 -3 -9 0 -11 7 -3 6 -9 10 -14 6 -10 -6 -12 9 -2 19 11 11 21 8 27 -9z
m236 6 c0 -5 -5 -10 -11 -10 -5 0 -7 5 -4 10 3 6 8 10 11 10 2 0 4 -4 4 -10z
m-215 -41 c45 26 53 27 30 1 -10 -11 -25 -20 -33 -20 -8 0 -12 -6 -8 -15 3 -8
1 -15 -5 -15 -22 0 -58 33 -68 63 l-11 32 30 -34 29 -34 36 22z m-3698 -24
c45 -27 55 -45 25 -45 -21 0 -92 47 -92 60 0 16 21 11 67 -15z m2493 5 c0 -5
-2 -10 -4 -10 -3 0 -8 5 -11 10 -3 6 -1 10 4 10 6 0 11 -4 11 -10z m512 -92
c16 -21 34 -38 39 -38 6 0 7 5 4 10 -9 15 0 12 42 -12 30 -19 53 -23 113 -23
86 0 121 15 189 79 31 28 40 33 29 16 -22 -36 -92 -87 -136 -100 -58 -16 -132
-12 -181 10 -24 11 -46 18 -49 15 -3 -2 17 -14 44 -26 112 -50 208 -32 305 59
34 31 57 48 51 36 -17 -32 -90 -94 -136 -115 -82 -37 -199 -21 -286 41 -30 22
-100 120 -100 142 0 7 10 -3 21 -22 12 -19 35 -52 51 -72z m-2322 82 c0 -5
-10 -10 -22 -9 -22 0 -22 1 -3 9 11 5 21 9 23 9 1 1 2 -3 2 -9z m5859 -33 c-2
-3 -14 -8 -26 -11 -24 -8 -30 5 -17 39 6 15 9 15 27 -4 12 -11 19 -22 16 -24z
m-4004 23 c-3 -5 -11 -10 -16 -10 -6 0 -7 5 -4 10 3 6 11 10 16 10 6 0 7 -4 4
-10z m-174 -37 c-17 -32 -53 -59 -276 -205 -121 -80 -314 -209 -430 -288 -217
-147 -256 -168 -275 -145 -8 10 -5 13 15 13 14 0 59 21 100 48 185 121 855
575 860 584 11 17 16 11 6 -7z m1354 -40 c-9 -15 -14 -20 -11 -10 4 11 9 31
13 45 5 19 8 22 11 10 2 -9 -4 -29 -13 -45z m63 50 c-9 -2 -19 -16 -23 -30 -3
-14 -8 -23 -11 -21 -11 11 16 58 33 57 16 -1 16 -2 1 -6z m-3078 -38 c0 -9 -9
-15 -21 -15 -18 0 -19 2 -9 15 7 8 16 15 21 15 5 0 9 -7 9 -15z m1957 -11 c-3
-3 -12 -4 -19 -1 -8 3 -5 6 6 6 11 1 17 -2 13 -5z m2773 2 c0 -2 -8 -10 -17
-17 -16 -13 -17 -12 -4 4 13 16 21 21 21 13z m-500 -121 c-6 -30 -16 -55 -22
-55 -6 0 -7 8 -3 18 4 9 12 44 18 77 7 34 13 50 15 37 2 -12 -2 -47 -8 -77z
m-2336 59 c12 -31 6 -82 -14 -106 l-20 -26 30 -6 c17 -3 30 -10 30 -16 0 -8
-6 -7 -20 0 -16 8 -20 8 -18 -2 2 -7 -5 -12 -14 -12 -14 1 -16 -2 -7 -17 11
-21 25 -23 66 -9 26 9 27 9 9 -5 -11 -8 -26 -15 -33 -15 -27 0 -10 -25 75
-109 156 -154 322 -219 536 -208 129 6 219 33 331 99 81 48 205 167 260 251
21 31 40 55 43 53 10 -11 -108 -163 -181 -232 -135 -127 -304 -194 -488 -194
-236 1 -452 115 -594 315 -42 59 -95 157 -95 172 1 4 12 -12 24 -37 l24 -45
-5 47 c-4 37 -1 54 17 82 24 39 35 44 44 20z m124 -38 c3 -15 -3 -17 -45 -14
-35 2 -49 7 -51 20 -2 11 5 18 20 20 36 6 73 -7 76 -26z m-228 -11 c0 -5 -5
-3 -10 5 -5 8 -10 20 -10 25 0 6 5 3 10 -5 5 -8 10 -19 10 -25z m2655 -120
c-27 -134 -93 -344 -126 -404 -11 -20 -17 -27 -13 -16 3 11 24 70 45 130 40
113 92 312 105 400 4 28 9 43 11 34 2 -9 -8 -74 -22 -144z m-1613 40 c-4 -5
-7 -12 -7 -15 0 -3 -7 -15 -15 -27 -19 -29 -42 -29 -77 1 l-28 24 40 44 40 44
26 -30 c15 -17 24 -35 21 -41z m-637 15 c21 -16 42 -30 47 -30 5 0 1 -14 -8
-32 -10 -19 -14 -44 -11 -64 l6 -33 -28 17 c-72 45 -83 58 -76 99 15 85 16 86
70 43z m836 12 c-7 -14 -93 -135 -107 -151 -2 -2 -7 -1 -10 2 -4 4 11 26 32
49 22 24 50 60 63 81 23 37 40 52 22 19z m-62 -14 c-15 -28 -122 -138 -135
-138 -7 0 134 156 144 159 1 1 -3 -9 -9 -21z m84 -9 c-10 -17 -24 -36 -32 -42
-8 -7 -2 7 14 31 32 49 45 57 18 11z m-153 -2 c0 -2 -12 -14 -27 -28 l-26 -24
19 27 c16 23 34 36 34 25z m1399 -56 c30 -23 52 -41 48 -41 -8 0 -137 90 -137
96 0 8 32 -12 89 -55z m188 27 c-3 -8 -6 -5 -6 6 -1 11 2 17 5 13 3 -3 4 -12
1 -19z m-4077 -10 c0 -6 -6 -5 -15 2 -8 7 -15 14 -15 16 0 2 7 1 15 -2 8 -4
15 -11 15 -16z m2643 -20 c-28 -50 -152 -171 -216 -213 -32 -20 -61 -35 -63
-32 -3 3 18 19 47 37 62 38 140 110 200 185 24 30 45 55 47 55 2 0 -5 -14 -15
-32z m-448 2 c4 -6 -9 -10 -32 -10 -28 0 -34 3 -23 10 20 13 47 13 55 0z
m1865 -58 c-20 -83 -71 -244 -76 -240 -2 3 9 48 25 100 16 52 35 120 42 152 8
31 15 52 17 46 2 -6 -1 -32 -8 -58z m-1478 31 c-11 -16 -30 -37 -43 -48 l-24
-20 20 25 c52 67 85 96 47 43z m2798 2 c10 -13 9 -15 -9 -15 -12 0 -21 6 -21
15 0 8 4 15 9 15 5 0 14 -7 21 -15z m-3290 -11 c0 -8 5 -12 11 -8 25 15 39
-58 19 -97 -13 -23 -40 -25 -40 -4 0 11 -7 14 -25 9 -14 -3 -40 -3 -59 0 -33
6 -34 8 -31 50 1 24 6 49 9 55 4 6 32 11 62 11 42 0 54 -3 54 -16z m-235 -95
c63 -28 153 -49 215 -49 36 0 60 -14 60 -35 0 -5 -6 -3 -13 6 -8 11 -36 17
-92 21 -53 4 -103 15 -146 33 -69 27 -193 108 -183 118 3 3 27 -11 52 -30 26
-20 74 -49 107 -64z m-115 -106 c47 -23 114 -50 150 -59 69 -18 224 -24 275
-11 23 7 27 6 18 -4 -19 -19 -188 -23 -270 -6 -131 28 -304 128 -368 212 -41
53 -29 46 43 -24 48 -47 92 -78 152 -108z m508 150 c3 -21 -1 -23 -35 -23 -40
0 -63 14 -63 38 0 9 13 12 48 10 40 -3 47 -6 50 -25z m481 -10 c-12 -15 -12
-16 6 -9 18 7 381 -69 398 -84 19 -17 -122 -301 -228 -459 l-72 -108 34 -84
c19 -46 54 -131 78 -189 64 -156 120 -273 137 -287 12 -11 27 -5 86 37 70 49
253 216 250 228 -2 13 14 42 24 42 6 0 5 -6 -2 -15 -25 -30 -3 -14 31 22 22
25 24 29 7 14 -28 -24 -40 -17 -15 8 6 8 8 11 2 9 -14 -8 -38 19 -25 27 15 9
12 22 -6 29 -9 3 -12 2 -8 -5 4 -7 -3 -9 -17 -7 -20 3 -24 8 -22 38 l1 35 -27
-30 c-60 -66 -61 -55 -2 20 34 43 92 123 129 177 l66 98 22 -25 c13 -15 34
-27 51 -28 21 -2 29 -8 31 -25 3 -19 6 -21 18 -11 8 7 14 7 14 1 0 -13 -111
-183 -158 -242 -27 -34 -29 -39 -9 -21 33 30 36 17 5 -17 -13 -14 -17 -22 -11
-18 7 4 34 35 60 69 26 34 40 56 30 48 -9 -7 -17 -9 -17 -3 0 12 25 34 32 27
3 -3 13 6 23 21 9 15 12 23 5 19 -8 -5 -11 -3 -8 6 3 8 11 14 18 14 8 0 23 15
34 34 11 19 15 31 8 27 -7 -4 -12 -4 -12 1 1 14 30 48 42 48 6 0 13 6 16 14 3
9 0 11 -8 6 -9 -6 -9 -3 0 14 6 12 15 19 19 17 11 -7 33 43 25 56 -4 6 -2 8 3
5 13 -8 26 20 16 36 -3 7 -3 9 2 5 4 -4 14 0 22 10 12 16 13 16 6 -2 -11 -31
-111 -215 -156 -286 -62 -98 -146 -206 -231 -296 -41 -45 -72 -85 -68 -89 4
-3 2 -5 -4 -3 -15 4 -96 -61 -89 -71 2 -5 -5 -17 -18 -27 -18 -16 -19 -16 -8
-1 7 9 9 17 3 17 -12 0 -34 -25 -27 -32 3 -3 -5 -13 -17 -24 -12 -10 -18 -13
-14 -6 4 6 5 12 2 12 -13 0 -91 -62 -91 -72 0 -6 -10 -12 -23 -13 -12 -1 -28
-8 -35 -15 -10 -10 -8 -10 11 -1 30 16 28 7 -4 -14 -15 -9 -23 -12 -19 -5 5 8
3 11 -6 8 -8 -3 -13 -11 -11 -17 1 -7 -2 -10 -8 -6 -14 9 -52 -14 -44 -27 4
-6 3 -8 -4 -5 -15 10 -43 -3 -35 -16 3 -6 1 -7 -5 -3 -6 4 -51 -13 -100 -38
-188 -94 -420 -157 -658 -177 -473 -41 -948 116 -1335 439 -188 158 -373 392
-485 614 -63 125 -54 122 17 -7 268 -481 680 -818 1174 -956 129 -36 247 -58
344 -63 l96 -5 -85 10 c-130 14 -251 37 -266 50 -16 13 -19 39 -4 39 6 0 10
-4 10 -9 0 -32 222 -64 435 -64 155 0 198 4 305 26 147 31 287 76 385 123 90
44 116 59 125 74 4 7 16 10 26 8 17 -4 16 -6 -6 -15 -14 -6 -36 -23 -50 -39
l-25 -28 30 21 c17 11 49 30 73 42 26 13 40 26 36 33 -4 6 -3 8 3 5 5 -3 36
10 69 28 32 19 52 35 44 35 -15 0 -66 68 -62 83 1 4 -3 7 -10 7 -6 0 -9 3 -6
6 6 5 -24 88 -63 171 -10 24 -19 46 -19 49 0 3 -6 20 -14 37 -42 93 -203 495
-211 527 -6 26 -30 85 -36 90 -13 11 -42 148 -36 171 7 27 87 129 101 129 5 0
2 -8 -5 -17z m-945 -127 c32 -15 82 -32 110 -38 28 -6 56 -15 61 -20 12 -11
-27 -3 -100 19 -55 17 -145 60 -145 69 0 3 3 4 8 2 4 -2 34 -16 66 -32z m96
-11 c46 -15 60 -23 37 -19 -31 4 -132 42 -117 43 3 0 39 -11 80 -24z m-582 1
c49 -25 132 -122 132 -153 0 -39 -45 -420 -70 -588 -36 -253 -49 -300 -82
-311 -12 -3 -17 -11 -14 -21 10 -25 -148 66 -257 148 -124 93 -256 224 -349
343 -98 127 -120 167 -116 213 l4 37 354 173 c194 95 357 173 362 173 5 0 21
-6 36 -14z m-2328 -16 c0 -5 -8 -10 -17 -10 -15 0 -16 2 -3 10 19 12 20 12 20
0z m3205 0 c-3 -5 -13 -10 -21 -10 -8 0 -12 5 -9 10 3 6 13 10 21 10 8 0 12
-4 9 -10z m995 -98 c0 -5 -7 -17 -15 -28 -14 -18 -14 -17 -4 9 12 27 19 34 19
19z m-3500 -16 c0 -2 -7 -6 -15 -10 -8 -3 -15 -1 -15 4 0 6 7 10 15 10 8 0 15
-2 15 -4z m4000 0 c0 -3 -4 -8 -10 -11 -5 -3 -10 -1 -10 4 0 6 5 11 10 11 6 0
10 -2 10 -4z m-3980 -46 c0 -5 -7 -10 -16 -10 -8 0 -12 5 -9 10 3 6 10 10 16
10 5 0 9 -4 9 -10z m5328 -35 c-6 -14 -13 -23 -15 -21 -5 5 15 46 22 46 3 0
-1 -11 -7 -25z m-3425 -5 c3 -11 1 -18 -4 -14 -5 3 -9 12 -9 20 0 20 7 17 13
-6z m1522 -10 c-9 -16 -18 -30 -21 -30 -2 0 2 14 11 30 9 17 18 30 21 30 2 0
-2 -13 -11 -30z m-2811 -76 c3 -8 2 -12 -4 -9 -6 3 -10 10 -10 16 0 14 7 11
14 -7z m1283 -6 c-3 -8 -6 -5 -6 6 -1 11 2 17 5 13 3 -3 4 -12 1 -19z m543 12
c11 -6 48 -52 83 -103 92 -132 205 -301 256 -380 l44 -68 -24 -25 c-28 -29
-198 -147 -281 -194 -32 -17 -58 -34 -58 -37 0 -5 175 88 233 124 20 13 37 21
37 18 0 -10 -141 -97 -248 -151 -59 -30 -96 -52 -82 -49 55 15 236 111 341
181 61 41 113 74 114 74 2 0 6 -7 9 -16 5 -13 3 -14 -6 -7 -10 8 -36 -6 -100
-51 -47 -33 -84 -65 -81 -70 4 -5 2 -7 -3 -3 -5 3 -20 0 -33 -7 -20 -11 -21
-14 -7 -19 11 -5 15 -3 10 5 -5 7 1 9 19 4 17 -4 31 -1 41 9 13 14 15 10 22
-31 5 -38 10 -45 25 -41 11 3 17 1 13 -4 -3 -5 2 -9 10 -9 9 0 16 4 16 8 0 4
15 8 33 9 20 1 -5 -11 -68 -32 -121 -40 -315 -74 -439 -77 l-91 -2 110 -6 110
-6 -140 -2 c-146 -2 -269 11 -292 29 -7 6 -13 21 -13 32 0 11 65 218 146 458
160 482 140 445 232 448 24 0 52 -4 62 -9z m940 -10 c-6 -11 -13 -20 -16 -20
-2 0 0 9 6 20 6 11 13 20 16 20 2 0 0 -9 -6 -20z m-1496 -16 c3 -8 2 -12 -4
-9 -6 3 -10 10 -10 16 0 14 7 11 14 -7z m1466 -34 c-6 -11 -13 -20 -16 -20 -2
0 0 9 6 20 6 11 13 20 16 20 2 0 0 -9 -6 -20z m-2542 -208 c161 -242 390 -463
615 -596 114 -68 237 -127 247 -121 5 3 7 38 5 78 -3 53 -2 62 4 34 12 -57 19
-55 32 12 14 64 23 78 27 36 1 -14 -2 -25 -6 -25 -4 0 -7 -10 -8 -22 -3 -72
-28 -138 -52 -138 -20 0 -225 108 -310 163 -138 90 -339 274 -454 417 -53 67
-188 270 -187 284 0 6 6 2 12 -8 7 -11 40 -62 75 -114z m2482 114 c0 -2 -8
-10 -17 -17 -16 -13 -17 -12 -4 4 13 16 21 21 21 13z m-62 -82 c-18 -25 -37
-48 -43 -52 -5 -3 3 12 19 34 45 60 48 64 53 64 2 0 -11 -21 -29 -46z m762 16
c-6 -12 -14 -20 -17 -17 -2 3 1 14 8 26 17 26 24 19 9 -9z m89 -29 c-32 -58
-166 -234 -243 -321 -342 -385 -842 -635 -1337 -669 -135 -9 -339 1 -459 23
-272 49 -556 173 -792 346 -105 77 -308 270 -368 350 -26 35 -19 30 28 -20 34
-36 61 -68 62 -72 0 -3 48 -50 107 -104 429 -387 968 -566 1505 -500 216 27
384 76 573 165 361 172 658 428 889 769 55 80 69 93 35 33z m-136 -36 c-3 -9
-8 -14 -10 -11 -3 3 -2 9 2 15 9 16 15 13 8 -4z m-53 -74 c-11 -21 -30 -37
-30 -25 0 8 30 44 37 44 2 0 -1 -9 -7 -19z m-2076 -21 c-6 -6 -10 -3 -10 10 0
13 4 16 10 10 7 -7 7 -13 0 -20z m-1003 -37 c13 -16 12 -17 -3 -4 -17 13 -22
21 -14 21 2 0 10 -8 17 -17z m3479 -13 c-6 -11 -13 -20 -16 -20 -2 0 0 9 6 20
6 11 13 20 16 20 2 0 0 -9 -6 -20z m-2486 -6 c3 -8 2 -12 -4 -9 -6 3 -10 10
-10 16 0 14 7 11 14 -7z m1126 -34 c0 -5 -2 -10 -4 -10 -3 0 -8 5 -11 10 -3 6
-1 10 4 10 6 0 11 -4 11 -10z m1328 -15 c-6 -14 -15 -25 -20 -25 -5 0 -1 11 8
25 9 14 18 25 20 25 2 0 -2 -11 -8 -25z m1223 -28 c-10 -9 -11 -8 -5 6 3 10 9
15 12 12 3 -3 0 -11 -7 -18z m-2055 -52 c-33 -30 -64 -55 -70 -55 -6 1 5 13
24 28 19 15 48 39 65 54 16 15 32 27 35 27 3 0 -22 -24 -54 -54z m-438 -10
c-3 -3 -9 2 -12 12 -6 14 -5 15 5 6 7 -7 10 -15 7 -18z m-2164 -14 c4 -5 -3
-7 -14 -4 -23 6 -26 13 -6 13 8 0 17 -4 20 -9z m3347 -19 c-5 -10 -18 -25 -27
-33 -11 -9 -9 -2 6 19 26 35 36 42 21 14z m-1131 -43 c0 -6 -4 -7 -10 -4 -5 3
-10 11 -10 16 0 6 5 7 10 4 6 -3 10 -11 10 -16z m1090 -12 c0 -2 -12 -14 -27
-28 l-28 -24 24 28 c23 25 31 32 31 24z m-2375 -56 c-3 -12 -11 -18 -17 -15
-7 4 -6 9 2 14 8 5 10 15 6 26 -5 14 -4 16 4 8 7 -7 9 -21 5 -33z m3634 -3
c-26 -52 -34 -61 -24 -28 16 52 25 70 35 70 6 0 1 -19 -11 -42z m-1345 -44
c-35 -43 -219 -229 -260 -264 -10 -8 -34 -28 -54 -45 -113 -94 -212 -163 -320
-222 -225 -123 -359 -178 -563 -232 -43 -11 -81 -22 -85 -24 -4 -3 -36 -7 -72
-11 -36 -3 -81 -10 -100 -16 -44 -13 -501 -26 -526 -15 -11 5 -26 9 -35 10
-115 13 -159 20 -245 40 -126 30 -310 90 -343 111 -1 2 0 7 3 12 3 5 46 -6 98
-25 134 -51 334 -100 483 -119 158 -20 477 -15 625 11 490 83 947 331 1306
709 65 69 121 125 123 125 2 1 -14 -20 -35 -45z m-931 2 c-3 -4 -9 -2 -14 5
-13 22 -11 31 5 17 8 -7 12 -17 9 -22z m207 -6 c0 -5 -4 -10 -9 -10 -6 0 -13
5 -16 10 -3 6 1 10 9 10 9 0 16 -4 16 -10z m-120 -22 c0 -6 -6 -5 -15 2 -8 7
-15 14 -15 16 0 2 7 1 15 -2 8 -4 15 -11 15 -16z m52 -10 c-7 -7 -12 -8 -12
-2 0 14 12 26 19 19 2 -3 -1 -11 -7 -17z m2088 -15 c-11 -17 -11 -17 -6 0 3
10 6 24 7 30 0 9 2 9 5 0 3 -7 0 -20 -6 -30z m-2420 19 c0 -5 -11 -14 -25 -20
-39 -18 -44 -14 -10 7 36 23 35 23 35 13z m310 4 c0 -2 -8 -10 -17 -17 -16
-13 -17 -12 -4 4 13 16 21 21 21 13z m-1580 -16 c0 -5 -5 -10 -11 -10 -5 0 -7
5 -4 10 3 6 8 10 11 10 2 0 4 -4 4 -10z m1360 0 c0 -5 -4 -10 -10 -10 -5 0
-10 5 -10 10 0 6 5 10 10 10 6 0 10 -4 10 -10z m490 6 c0 -3 -15 -14 -32 -26
l-33 -22 30 26 c31 27 35 29 35 22z m-401 -104 c25 -18 41 -32 36 -32 -13 0
-134 94 -135 104 0 6 12 -2 28 -15 15 -14 47 -40 71 -57z m78 50 c16 -21 18
-29 7 -29 -8 0 -14 5 -14 10 0 6 -7 19 -17 29 -9 10 -12 18 -6 18 5 0 19 -13
30 -28z m33 8 c0 -5 -2 -10 -4 -10 -3 0 -8 5 -11 10 -3 6 -1 10 4 10 6 0 11
-4 11 -10z m-697 -97 c-7 -2 -19 -2 -25 0 -7 3 -2 5 12 5 14 0 19 -2 13 -5z
m-1238 -43 c3 -5 2 -10 -4 -10 -5 0 -13 5 -16 10 -3 6 -2 10 4 10 5 0 13 -4
16 -10z m655 -20 c0 -5 -8 -10 -17 -10 -15 0 -16 2 -3 10 19 12 20 12 20 0z
m-19 -39 c-12 -8 -12 -12 2 -26 10 -9 17 -18 17 -20 0 -5 -43 8 -70 22 -24 13
-24 13 -2 13 12 0 22 -4 22 -10 0 -5 5 -10 11 -10 5 0 7 5 4 10 -8 13 3 30 18
30 8 0 7 -4 -2 -9z m-1011 -35 c0 -3 -4 -8 -10 -11 -5 -3 -10 -1 -10 4 0 6 5
11 10 11 6 0 10 -2 10 -4z m65 -56 c3 -5 2 -10 -4 -10 -5 0 -13 5 -16 10 -3 6
-2 10 4 10 5 0 13 -4 16 -10z m113 -82 c2 -5 8 -8 14 -8 6 0 60 -29 122 -64
61 -35 135 -74 164 -86 28 -12 52 -28 52 -35 0 -11 -6 -11 -30 -2 -16 6 -30
15 -30 19 0 4 -6 8 -12 8 -31 1 -287 151 -308 180 -3 4 -15 12 -27 19 -13 6
-23 16 -23 22 0 10 72 -39 78 -53z m3062 -2 c0 -7 -117 -96 -125 -96 -4 0 20
22 52 50 53 45 73 57 73 46z m-2360 -10 c0 -3 -4 -8 -10 -11 -5 -3 -10 -1 -10
4 0 6 5 11 10 11 6 0 10 -2 10 -4z m2520 -5 c0 -5 -9 -11 -19 -14 -14 -3 -18
-1 -14 9 6 15 33 19 33 5z m-3315 -41 c-10 -11 -20 -18 -23 -15 -7 6 18 35 31
35 5 0 2 -9 -8 -20z m3234 -20 c-19 -16 -38 -29 -43 -30 -5 0 8 15 30 34 21
19 41 32 43 30 3 -3 -11 -18 -30 -34z m-3309 -4 c0 -3 -4 -8 -10 -11 -5 -3
-10 -1 -10 4 0 6 5 11 10 11 6 0 10 -2 10 -4z m3700 -16 c0 -5 -10 -15 -22
-21 -13 -7 -26 -16 -29 -22 -4 -5 -12 -6 -19 -2 -7 5 0 15 22 31 36 25 48 29
48 14z m-3462 -9 c10 -6 7 -10 -12 -13 -25 -5 -33 1 -19 15 8 9 15 9 31 -2z
m1177 -1 c3 -5 1 -10 -4 -10 -6 0 -11 5 -11 10 0 6 2 10 4 10 3 0 8 -4 11 -10z
m1816 -30 c-13 -11 -29 -20 -36 -20 -7 0 -15 -5 -17 -11 -2 -7 -10 -10 -18 -7
-9 3 4 15 35 31 61 31 67 32 36 7z m-517 -34 c-10 -8 -21 -12 -24 -9 -3 2 4
11 14 19 11 7 22 12 25 9 2 -3 -4 -12 -15 -19z m-50 -31 c-34 -25 -180 -105
-192 -105 -7 0 -12 -5 -12 -11 0 -5 -5 -7 -11 -3 -6 3 -14 3 -18 -2 -6 -8 -88
-54 -97 -54 -2 0 -4 7 -4 15 0 8 5 15 11 15 5 0 31 10 57 22 26 12 50 21 55
20 4 -1 7 2 7 7 0 5 12 12 27 16 15 3 30 10 33 13 3 4 25 17 50 30 25 13 59
31 75 41 34 21 48 18 19 -4z m456 15 c0 -11 -51 -34 -97 -43 -50 -10 -39 11
12 24 25 6 48 15 51 20 7 12 34 11 34 -1z m-420 -64 c0 -2 -7 -7 -16 -10 -8
-3 -12 -2 -9 4 6 10 25 14 25 6z m221 -10 c-27 -32 -548 -320 -540 -298 2 6
58 39 124 73 66 34 161 87 210 117 50 30 109 66 132 79 24 14 45 29 48 34 4 5
13 9 22 9 12 0 13 -3 4 -14z m-291 -30 c0 -3 -4 -8 -10 -11 -5 -3 -10 -1 -10
4 0 6 5 11 10 11 6 0 10 -2 10 -4z m-30 -20 c0 -3 -4 -8 -10 -11 -5 -3 -10 -1
-10 4 0 6 5 11 10 11 6 0 10 -2 10 -4z m-30 -16 c0 -5 -5 -10 -11 -10 -5 0 -7
5 -4 10 3 6 8 10 11 10 2 0 4 -4 4 -10z m-30 -20 c0 -5 -4 -10 -10 -10 -5 0
-10 5 -10 10 0 6 5 10 10 10 6 0 10 -4 10 -10z m-220 -28 c0 -9 -74 -42 -95
-42 -8 0 -15 -4 -15 -9 0 -5 -12 -11 -27 -14 -52 -10 -62 -13 -69 -20 -4 -4
-18 -7 -31 -7 -12 0 -23 -4 -23 -10 0 -5 -13 -10 -30 -10 -16 0 -30 -5 -30
-11 0 -7 -10 -9 -26 -5 -14 4 -31 3 -37 -2 -7 -5 -28 -12 -47 -15 -19 -3 -73
-13 -120 -21 -193 -35 -477 -43 -680 -21 -107 11 -140 18 -140 26 0 11 26 11
120 -2 91 -13 509 -12 565 1 22 5 63 10 90 10 48 1 49 1 25 15 -24 14 -24 14
13 8 24 -4 37 -2 37 6 0 6 5 11 11 11 5 0 8 -4 5 -9 -3 -5 6 -11 20 -14 18 -3
24 -1 20 8 -3 10 5 12 33 8 23 -3 41 -1 45 6 4 6 18 11 32 11 13 0 32 4 42 9
9 6 44 18 77 27 33 10 65 21 71 26 6 4 13 5 16 2 3 -3 25 4 49 15 71 31 99 38
99 23z m160 -2 c0 -5 -4 -10 -10 -10 -5 0 -38 -13 -72 -30 -34 -16 -67 -30
-74 -30 -7 0 -14 -4 -16 -9 -4 -11 -68 -25 -68 -14 0 4 26 16 58 26 31 10 82
31 112 46 62 33 70 35 70 21z m-1830 -77 c47 -13 97 -27 112 -30 15 -3 25 -9
22 -14 -7 -12 -44 -12 -44 0 0 5 -20 12 -45 15 -25 4 -57 14 -73 22 -15 7 -35
14 -44 14 -9 0 -20 5 -23 10 -4 6 -10 8 -15 5 -5 -3 -12 0 -16 6 -5 9 0 10 17
5 13 -5 62 -19 109 -33z m1360 1 c0 -2 -7 -4 -15 -4 -8 0 -15 4 -15 10 0 5 7
7 15 4 8 -4 15 -8 15 -10z m1404 -30 c3 -8 2 -12 -4 -9 -6 3 -10 10 -10 16 0
14 7 11 14 -7z m-1184 -4 c0 -5 -9 -10 -20 -10 -11 0 -20 5 -20 10 0 6 9 10
20 10 11 0 20 -4 20 -10z m-1905 -55 c19 -9 24 -15 12 -15 -9 0 -34 9 -54 20
-21 11 -46 20 -56 20 -10 0 -16 4 -12 9 5 9 42 -2 110 -34z m232 39 c-3 -3
-12 -4 -19 -1 -8 3 -5 6 6 6 11 1 17 -2 13 -5z m293 -4 c0 -5 -7 -10 -15 -10
-8 0 -18 0 -22 -1 -4 0 -9 4 -11 10 -2 6 8 11 22 11 14 0 26 -4 26 -10z m1325
0 c-3 -5 -10 -10 -16 -10 -5 0 -9 5 -9 10 0 6 7 10 16 10 8 0 12 -4 9 -10z
m-1575 -10 c0 -5 -4 -10 -9 -10 -6 0 -13 5 -16 10 -3 6 1 10 9 10 9 0 16 -4
16 -10z m314 4 c22 -9 10 -24 -20 -24 -25 0 -33 15 -11 23 6 3 13 6 14 6 1 1
8 -2 17 -5z m1211 -4 c3 -5 -3 -10 -15 -10 -12 0 -18 5 -15 10 3 6 10 10 15
10 5 0 12 -4 15 -10z m-528 -6 c-3 -3 -12 -4 -19 -1 -8 3 -5 6 6 6 11 1 17 -2
13 -5z m-950 -10 c-3 -3 -12 -4 -19 -1 -8 3 -5 6 6 6 11 1 17 -2 13 -5z m1428
-4 c-3 -5 -15 -10 -26 -10 -10 0 -19 5 -19 10 0 6 12 10 26 10 14 0 23 -4 19
-10z m-1375 -4 c0 -11 -19 -15 -25 -6 -3 5 1 10 9 10 9 0 16 -2 16 -4z m1284
-22 c-22 -7 -66 -16 -99 -18 -50 -4 -53 -4 -20 3 22 5 63 15 90 23 60 17 83
11 29 -8z m-1231 -1 c-7 -2 -19 -2 -25 0 -7 3 -2 5 12 5 14 0 19 -2 13 -5z
m50 -10 c-7 -2 -19 -2 -25 0 -7 3 -2 5 12 5 14 0 19 -2 13 -5z m1525 -5 c-4
-11 -76 -40 -143 -58 -16 -4 -57 -15 -90 -25 -33 -9 -78 -21 -100 -26 -22 -5
-49 -12 -60 -15 -17 -5 -18 -4 -7 7 7 8 34 19 60 25 85 21 156 43 237 72 90
34 108 37 103 20z m-1453 -8 c18 -8 17 -9 -7 -9 -15 -1 -30 4 -33 9 -7 12 12
12 40 0z m910 -10 c4 -6 -7 -10 -27 -9 -31 1 -32 1 -8 9 14 4 26 8 27 9 1 1 5
-3 8 -9z m-842 -7 c-7 -2 -19 -2 -25 0 -7 3 -2 5 12 5 14 0 19 -2 13 -5z m97
-7 c0 -9 -39 -13 -51 -5 -10 6 -4 9 19 9 17 0 32 -2 32 -4z m670 -6 c0 -6 -27
-10 -61 -10 -37 0 -58 4 -54 10 3 6 31 10 61 10 30 0 54 -4 54 -10z m-520 -10
c-20 -13 -100 -13 -100 0 0 6 26 10 58 10 40 0 53 -3 42 -10z m-565 -21 c75
-24 99 -46 40 -35 -51 10 -115 36 -115 47 0 12 2 12 75 -12z m920 11 c-29 -12
-272 -12 -280 0 -4 7 47 10 147 9 95 0 145 -4 133 -9z m-585 -84 c63 -8 154
-18 203 -21 80 -7 107 -18 73 -31 -7 -3 -91 7 -187 22 -96 15 -193 29 -216 31
-24 3 -43 9 -43 15 0 5 12 7 28 4 15 -3 79 -12 142 -20z m892 -8 c-13 -13
-170 -24 -157 -10 11 11 144 31 158 24 5 -2 4 -9 -1 -14z m-1548 -7 c3 -5 16
-11 29 -15 47 -11 98 -37 92 -46 -8 -13 -145 45 -145 62 0 11 18 10 24 -1z
m1206 -20 c0 -10 -207 -20 -225 -11 -13 7 72 16 158 18 37 1 67 -2 67 -7z
m-717 -48 c-7 -2 -19 -2 -25 0 -7 3 -2 5 12 5 14 0 19 -2 13 -5z m92 -13 c-3
-5 -17 -10 -31 -10 -13 0 -24 5 -24 10 0 6 14 10 31 10 17 0 28 -4 24 -10z
m83 -17 c-10 -2 -28 -2 -40 0 -13 2 -5 4 17 4 22 1 32 -1 23 -4z m59 -9 c-3
-3 -12 -4 -19 -1 -8 3 -5 6 6 6 11 1 17 -2 13 -5z m-317 -34 c12 -8 9 -10 -12
-10 -16 0 -28 5 -28 10 0 13 20 13 40 0z m68 -17 c-10 -2 -26 -2 -35 0 -10 3
-2 5 17 5 19 0 27 -2 18 -5z m82 -12 c0 -6 -5 -13 -10 -16 -15 -9 -43 3 -35
15 8 13 45 13 45 1z m570 -18 c0 -5 -11 -13 -25 -20 -29 -13 -33 -6 -7 13 19
15 32 18 32 7z"/>
<path d="M3378 7084 c-39 -21 -35 -28 5 -8 37 19 44 24 31 24 -5 -1 -21 -8
-36 -16z"/>
<path d="M3710 6990 c-8 -5 -10 -10 -5 -10 6 0 17 5 25 10 8 5 11 10 5 10 -5
0 -17 -5 -25 -10z"/>
<path d="M6190 6865 c-11 -14 -10 -14 14 -6 39 15 32 -3 -9 -22 -28 -14 -35
-22 -35 -46 0 -17 10 -42 23 -56 22 -27 23 -27 60 -12 40 17 52 7 15 -11 l-23
-11 22 0 c12 -1 32 12 48 31 22 26 26 39 21 66 -8 50 -41 82 -87 82 -21 0 -42
-7 -49 -15z m80 -35 c36 -36 21 -90 -26 -90 -51 0 -73 66 -32 94 29 20 34 20
58 -4z"/>
<path d="M6766 6859 c-21 -16 -26 -29 -26 -63 0 -47 22 -86 50 -86 10 0 22 -4
25 -10 10 -17 61 17 75 49 15 38 7 75 -25 107 -30 29 -64 31 -99 3z m36 -31
c-5 -7 -9 -28 -7 -45 2 -35 -9 -44 -19 -17 -9 25 -7 49 6 62 16 16 33 16 20 0z
m68 -37 c0 -16 -8 -35 -17 -42 -15 -12 -16 -12 -10 4 4 10 7 32 7 48 0 18 4
28 10 24 6 -3 10 -19 10 -34z"/>
<path d="M6460 6860 c-11 -7 -4 -10 30 -11 41 -2 42 -3 10 -6 -49 -6 -63 -23
-19 -24 21 -1 26 -3 14 -6 -34 -8 -41 -23 -12 -23 15 0 27 -5 27 -11 0 -7 -14
-10 -35 -7 -19 2 -35 0 -35 -4 0 -4 15 -8 34 -8 33 0 49 11 52 35 0 6 2 16 2
23 3 23 18 12 36 -25 l18 -38 39 45 c21 25 39 51 39 58 0 21 -27 13 -44 -13
-20 -31 -28 -31 -41 -2 -8 17 -19 23 -55 25 -25 1 -52 -2 -60 -8z m164 -44
c-16 -19 -32 -35 -36 -35 -3 -1 -15 15 -27 34 -11 19 -16 35 -10 35 5 0 15
-11 21 -25 14 -32 19 -31 47 6 13 17 25 28 28 25 3 -3 -7 -21 -23 -40z"/>
<path d="M6405 6849 c-4 -6 -4 -13 -1 -16 3 -4 6 -1 6 5 0 7 5 12 11 12 15 0
3 -61 -13 -71 -7 -5 -9 -11 -5 -15 13 -13 28 12 34 55 5 33 3 41 -10 41 -9 0
-19 -5 -22 -11z"/>
<path d="M5632 6713 c-19 -7 -42 -58 -42 -93 0 -37 47 -90 79 -90 59 0 93 36
93 98 0 61 -72 109 -130 85z m13 -23 c-3 -5 -11 -10 -16 -10 -6 0 -7 5 -4 10
3 6 11 10 16 10 6 0 7 -4 4 -10z m68 -28 c38 -33 3 -101 -46 -88 -46 11 -53
80 -10 104 19 11 27 8 56 -16z"/>
<path d="M7307 6693 c-25 -29 -32 -89 -13 -118 22 -34 63 -49 94 -36 28 13 55
74 46 104 -18 60 -91 89 -127 50z m103 -63 c0 -28 -22 -60 -41 -60 -15 0 -49
39 -49 56 0 8 5 12 10 9 9 -6 12 1 9 22 -1 13 36 21 54 11 10 -5 17 -20 17
-38z"/>
<path d="M7803 6400 c-28 -11 -43 -40 -43 -82 0 -42 22 -74 56 -82 37 -10 62
1 79 34 23 44 19 78 -14 111 -31 31 -42 33 -78 19z m48 -31 c21 -15 29 -29 29
-50 0 -29 -6 -35 -44 -41 -30 -5 -50 40 -31 69 19 29 19 34 -2 26 -11 -4 -14
-3 -9 5 10 17 24 15 57 -9z m-6 -119 c-3 -5 -12 -10 -18 -10 -7 0 -6 4 3 10
19 12 23 12 15 0z"/>
<path d="M5096 6359 c-14 -17 -26 -43 -26 -57 0 -43 33 -88 70 -96 49 -9 55
-8 84 20 58 58 14 164 -67 164 -27 0 -41 -7 -61 -31z m44 7 c0 -2 -7 -7 -16
-10 -8 -3 -12 -2 -9 4 6 10 25 14 25 6z m66 -41 c14 -21 15 -31 6 -50 -17 -38
-39 -32 -34 8 2 22 -2 39 -13 50 -15 16 -15 17 4 17 11 0 28 -11 37 -25z m-20
-100 c-11 -8 -25 -15 -30 -15 -6 1 0 7 14 15 32 19 40 18 16 0z"/>
<path d="M8161 5954 c-28 -36 -27 -86 2 -120 45 -52 114 -24 124 52 11 82 -78
129 -126 68z m59 -4 c21 -7 22 -8 5 -9 -12 -1 -27 -7 -35 -13 -11 -10 -11 -9
0 6 14 18 13 18 -9 11 -16 -5 -21 -4 -17 4 8 12 20 13 56 1z"/>
<path d="M8446 5455 c4 -9 0 -15 -9 -15 -18 0 -27 -21 -27 -65 0 -25 8 -40 31
-60 18 -14 38 -24 46 -21 8 4 19 6 24 6 15 0 49 63 49 91 0 44 -35 79 -80 79
-31 0 -38 -3 -34 -15z m49 -135 c-3 -5 -12 -10 -18 -10 -7 0 -6 4 3 10 19 12
23 12 15 0z"/>
<path d="M8557 5310 c-3 -11 -3 -20 -1 -20 2 0 8 9 14 20 6 11 7 20 2 20 -6 0
-12 -9 -15 -20z"/>
<path d="M7231 5870 c16 -24 26 -28 32 -14 1 4 -9 14 -23 23 l-25 16 16 -25z"/>
<path d="M6981 4835 c0 -5 6 -19 14 -29 8 -11 15 -15 15 -10 0 6 -7 19 -15 30
-8 10 -14 15 -14 9z"/>
<path d="M6253 4648 c-15 -20 -25 -38 -20 -38 3 0 12 11 21 25 17 26 16 35 -1
13z"/>
<path d="M8106 3243 c-6 -14 -5 -15 5 -6 7 7 10 15 7 18 -3 3 -9 -2 -12 -12z"/>
<path d="M7855 2898 l-40 -43 43 40 c23 21 42 40 42 42 0 8 -9 0 -45 -39z"/>
<path d="M7779 2824 c-23 -25 -23 -26 -2 -13 13 7 25 19 27 26 8 19 2 16 -25
-13z"/>
<path d="M7700 2745 c-24 -25 -42 -45 -39 -45 3 0 25 20 49 45 24 25 42 45 39
45 -3 0 -25 -20 -49 -45z"/>
<path d="M7624 2678 l-19 -23 23 19 c12 11 22 21 22 23 0 8 -8 2 -26 -19z"/>
<path d="M7579 2643 c-13 -16 -12 -17 4 -4 16 13 21 21 13 21 -2 0 -10 -8 -17
-17z"/>
<path d="M6828 2283 c7 -3 16 -2 19 1 4 3 -2 6 -13 5 -11 0 -14 -3 -6 -6z"/>
<path d="M6778 2273 c7 -3 16 -2 19 1 4 3 -2 6 -13 5 -11 0 -14 -3 -6 -6z"/>
<path d="M6728 2263 c6 -2 18 -2 25 0 6 3 1 5 -13 5 -14 0 -19 -2 -12 -5z"/>
<path d="M6668 2253 c6 -2 18 -2 25 0 6 3 1 5 -13 5 -14 0 -19 -2 -12 -5z"/>
<path d="M6538 2243 c18 -2 45 -2 60 0 15 2 0 4 -33 4 -33 0 -45 -2 -27 -4z"/>
<path d="M6398 2233 c7 -3 16 -2 19 1 4 3 -2 6 -13 5 -11 0 -14 -3 -6 -6z"/>
<path d="M5293 7726 c-42 -43 -53 -66 -33 -66 16 0 100 81 100 96 0 25 -24 14
-67 -30z"/>
<path d="M4601 7684 c-32 -13 -64 -44 -56 -53 5 -5 70 36 85 54 15 18 14 18
-29 -1z"/>
<path d="M4127 7665 c-32 -7 -61 -15 -64 -19 -11 -11 91 6 117 20 30 16 23 16
-53 -1z"/>
<path d="M4720 7666 c0 -2 11 -6 25 -8 14 -3 25 -1 25 3 0 5 -11 9 -25 9 -14
0 -25 -2 -25 -4z"/>
<path d="M7698 7643 c7 -3 16 -2 19 1 4 3 -2 6 -13 5 -11 0 -14 -3 -6 -6z"/>
<path d="M5140 7619 c0 -5 5 -7 10 -4 6 3 10 8 10 11 0 2 -4 4 -10 4 -5 0 -10
-5 -10 -11z"/>
<path d="M7125 7544 c-27 -29 -33 -49 -12 -41 6 3 38 13 70 23 l59 17 -39 13
c-50 18 -50 18 -78 -12z"/>
<path d="M3904 7543 c-25 -26 -2 -27 48 -4 37 18 23 20 -21 3 -9 -3 -12 -1 -7
6 11 17 0 15 -20 -5z"/>
<path d="M8297 7505 c-31 -48 -43 -144 -20 -152 7 -3 16 4 19 14 3 10 17 43
32 73 14 30 28 67 30 83 5 43 -28 34 -61 -18z"/>
<path d="M4556 7519 c10 -12 18 -30 16 -41 -4 -24 24 -58 49 -58 40 0 49 -10
44 -54 -4 -30 -3 -36 4 -21 16 33 12 50 -23 109 -47 78 -55 86 -84 86 -25 0
-25 0 -6 -21z"/>
<path d="M4650 7535 c0 -15 42 -85 50 -85 17 0 11 36 -11 64 -18 23 -39 34
-39 21z"/>
<path d="M8392 7508 c-5 -7 -19 -32 -31 -56 -20 -39 -20 -44 -6 -65 13 -19 15
-19 15 -3 0 10 9 20 20 23 11 3 29 20 40 38 24 39 26 52 5 35 -21 -17 -29 -7
-15 19 8 17 8 21 -3 21 -8 0 -19 -6 -25 -12z"/>
<path d="M4781 7453 c-29 -36 -40 -63 -23 -63 13 1 72 89 63 95 -5 3 -23 -12
-40 -32z"/>
<path d="M8450 7435 c-11 -13 -10 -14 4 -9 9 3 16 10 16 15 0 13 -6 11 -20 -6z"/>
<path d="M8507 7413 c-3 -5 -2 -15 2 -22 5 -7 11 -9 14 -4 3 5 2 15 -2 22 -5
7 -11 9 -14 4z"/>
<path d="M8477 7363 c-11 -13 -17 -27 -14 -30 3 -2 13 7 23 21 22 34 15 42 -9
9z"/>
<path d="M4249 7218 c-3 -28 4 -54 17 -69 30 -34 12 -30 -23 4 -20 21 -41 37
-47 37 -16 0 -38 -39 -30 -51 4 -6 -5 -3 -20 6 -14 10 -35 15 -47 12 -12 -3
-32 -1 -45 5 -17 8 -27 8 -39 -2 -24 -20 -19 -25 43 -44 31 -10 69 -24 84 -31
22 -11 27 -11 32 1 6 15 68 9 74 -8 2 -4 8 -6 13 -2 5 3 9 -16 9 -41 0 -33 4
-45 13 -42 7 2 12 24 12 58 0 30 6 60 13 67 20 22 14 57 -16 85 -31 30 -41 33
-43 15z"/>
<path d="M5070 7220 c-9 -6 -10 -10 -3 -10 6 0 15 5 18 10 8 12 4 12 -15 0z"/>
<path d="M4390 7162 c0 -10 -7 -28 -16 -40 -8 -12 -12 -22 -7 -22 9 0 43 56
43 71 0 5 -4 9 -10 9 -5 0 -10 -8 -10 -18z"/>
<path d="M4217 7026 c-4 -9 3 -16 19 -19 24 -4 24 -3 8 14 -20 23 -20 23 -27
5z"/>
<path d="M3877 6991 c4 -16 13 -21 37 -20 30 0 30 1 7 10 -14 5 -30 14 -37 20
-9 8 -11 5 -7 -10z"/>
<path d="M9116 2085 c-3 -8 -1 -15 4 -15 13 0 22 18 11 24 -5 3 -11 -1 -15 -9z"/>
<path d="M9080 2031 c0 -25 6 -27 13 -6 4 8 2 17 -3 20 -6 4 -10 -3 -10 -14z"/>
<path d="M8775 1677 c-4 -10 -5 -21 -1 -24 10 -10 18 4 13 24 -4 17 -4 17 -12
0z"/>
<path d="M8730 1625 c0 -8 5 -15 10 -15 6 0 10 7 10 15 0 8 -4 15 -10 15 -5 0
-10 -7 -10 -15z"/>
</g>
</svg>
